<?xml version="1.0" encoding="UTF-8"?>
<svg version="1.1" xmlns="http://www.w3.org/2000/svg" width="606" height="636">
<path d="M0 0 C0.81082031 0.5878125 1.62164062 1.175625 2.45703125 1.78125 C6.32650814 4.59541501 9.63486979 7.57978581 13 11 C13.88558594 11.87398437 14.77117187 12.74796875 15.68359375 13.6484375 C16.59238281 14.54820312 17.50117188 15.44796875 18.4375 16.375 C19.34371094 17.26960938 20.24992187 18.16421875 21.18359375 19.0859375 C52.90078358 51.29836065 68.89388285 96.50395465 69.0625 141.1875 C68.6147627 177.89047781 56.97715146 213.57296669 35 243 C34.14341797 244.17369141 34.14341797 244.17369141 33.26953125 245.37109375 C28.30631376 251.98478736 22.65894926 257.98578039 17 264 C16.12408203 264.95712891 16.12408203 264.95712891 15.23046875 265.93359375 C-12.79924454 295.52445563 -57.03919435 313.62157142 -97.33862305 315.12451172 C-119.38316935 315.59985786 -140.83120864 314.75022573 -162 308 C-162.74926758 307.76829102 -163.49853516 307.53658203 -164.27050781 307.29785156 C-177.30203824 303.21992198 -189.16937737 297.79977598 -201 291 C-202.00160156 290.42636719 -203.00320312 289.85273438 -204.03515625 289.26171875 C-210.02322388 285.62191294 -215.59627858 281.40131569 -221.1875 277.1875 C-221.95594238 276.61153076 -222.72438477 276.03556152 -223.51611328 275.44213867 C-224.22622559 274.8979126 -224.93633789 274.35368652 -225.66796875 273.79296875 C-226.31016357 273.3033667 -226.9523584 272.81376465 -227.61401367 272.30932617 C-228.3000769 271.66120972 -228.3000769 271.66120972 -229 271 C-229 270.34 -229 269.68 -229 269 C-229.56203125 268.7628125 -230.1240625 268.525625 -230.703125 268.28125 C-233.51894042 266.71052303 -235.47955416 264.78528536 -237.75 262.5 C-238.54921875 261.7059375 -239.3484375 260.911875 -240.171875 260.09375 C-242 258 -242 258 -242 256 C-242.66 256 -243.32 256 -244 256 C-276.61182244 221.99870142 -288.19429803 174.90443311 -287.33984375 129.2578125 C-286.70533544 103.76854353 -279.59345181 79.6492363 -268 57 C-267.67 56.34 -267.34 55.68 -267 55 C-266.34 55 -265.68 55 -265 55 C-264.83371094 54.15501953 -264.83371094 54.15501953 -264.6640625 53.29296875 C-262.62348215 46.24696485 -257.41804308 39.9750746 -252.87182617 34.34301758 C-251.14742815 32.18453997 -249.48381329 29.99059718 -247.8203125 27.78515625 C-243.97900285 22.84473327 -239.74954401 18.40569016 -235.3125 14 C-234.52520508 13.21544434 -233.73791016 12.43088867 -232.92675781 11.62255859 C-226.99282351 5.79402492 -220.92253935 0.63600362 -214 -4 C-212.94296875 -4.73476562 -211.8859375 -5.46953125 -210.796875 -6.2265625 C-208 -8 -208 -8 -206 -8 C-206 -8.66 -206 -9.32 -206 -10 C-205.12859375 -10.43570313 -204.2571875 -10.87140625 -203.359375 -11.3203125 C-202.78977051 -11.60527588 -202.22016602 -11.89023926 -201.63330078 -12.18383789 C-200.36135834 -12.81947934 -199.08888338 -13.45405615 -197.81591797 -14.08764648 C-194.8508703 -15.56501115 -191.89642632 -17.05418315 -188.9609375 -18.58984375 C-176.13092245 -25.25226203 -163.06159054 -29.57611402 -148.94995117 -32.56103516 C-147.03136192 -32.99293994 -145.13389769 -33.51545505 -143.23828125 -34.0390625 C-137.96114885 -35.37282907 -132.60064724 -35.71095363 -127.1875 -36.125 C-125.66286133 -36.25455078 -125.66286133 -36.25455078 -124.10742188 -36.38671875 C-79.25535677 -39.98860543 -35.78249078 -27.13545362 0 0 Z " fill="#3D2616" transform="translate(403,204)"/>
<path d="M0 0 C8.08869473 4.52943901 12.8112178 9.65813539 18.43383789 16.92285156 C18.9559082 17.54546875 19.47797852 18.16808594 20.01586914 18.80957031 C26.43139955 26.81444662 26.93127906 37.61173411 28.30053711 47.42626953 C29.15504034 53.45545367 30.34665515 59.22723908 31.98071289 65.09863281 C33.04269442 71.71770732 30.66551853 78.51525617 29.05883789 84.92285156 C28.7455957 86.21835937 28.7455957 86.21835937 28.42602539 87.54003906 C26.43361913 95.53396174 23.74885421 102.01715574 18.55883789 108.42285156 C17.70600602 109.49475952 16.8544461 110.56768068 16.00415039 111.64160156 C15.59723969 112.14610336 15.19032898 112.65060516 14.77108765 113.1703949 C13.42682402 114.87166649 13.42682402 114.87166649 12.39834595 116.60438538 C9.08570329 121.906146 5.21805755 124.1580578 -0.36303711 126.76269531 C-1.22015793 127.17610168 -2.07727875 127.58950806 -2.96037292 128.01544189 C-42.29332304 146.68724756 -42.29332304 146.68724756 -60.63757324 140.18908691 C-97.63312883 126.2887189 -97.63312883 126.2887189 -106.19116211 114.17285156 C-106.88467773 113.20863281 -107.57819336 112.24441406 -108.29272461 111.25097656 C-108.64874756 110.72600586 -109.00477051 110.20103516 -109.37158203 109.66015625 C-110.23050385 108.41100692 -111.12306942 107.1847482 -112.03613281 105.97460938 C-116.53374258 99.77849797 -118.58546033 93.53668656 -120.50366211 86.17285156 C-120.81883789 85.08230469 -121.13401367 83.99175781 -121.45874023 82.86816406 C-124.8306835 70.273621 -122.5748396 58.6263787 -120.09204102 46.08203125 C-119.68784257 44.03100722 -119.3002438 41.97728996 -118.91381836 39.92285156 C-118.65568353 38.591932 -118.39660292 37.26119544 -118.13647461 35.93066406 C-117.90718262 34.75133301 -117.67789063 33.57200195 -117.44165039 32.35693359 C-114.63029463 21.32945726 -106.8512929 8.57899267 -96.99584961 2.42675781 C-93.7468751 0.67926873 -90.36060774 -0.68213272 -86.9362793 -2.04492188 C-84.26672511 -3.20755837 -81.773694 -4.57435472 -79.23022461 -5.99121094 C-50.41906273 -21.57600979 -27.1373064 -14.28315967 0 0 Z " fill="#3D2616" transform="translate(339.566162109375,281.0771484375)"/>
<path d="M0 0 C18.35223862 15.59452191 33.270377 36.97751633 35.9375 61.49609375 C37.54652698 88.4298062 33.61636446 113.85512929 16.53515625 135.546875 C14.40193062 137.94276069 12.21654329 140.23948199 9.9375 142.49609375 C9.1125 143.36234375 8.2875 144.22859375 7.4375 145.12109375 C6.6125 145.90484375 5.7875 146.68859375 4.9375 147.49609375 C4.36386719 148.07617188 3.79023438 148.65625 3.19921875 149.25390625 C-15.5199034 167.23272413 -41.46260855 174.07105887 -66.72509766 173.98388672 C-95.30417015 173.32275566 -118.16307453 161.32959132 -138.18359375 141.3828125 C-143.81883941 135.37408077 -148.03699988 128.66026674 -152.0625 121.49609375 C-152.52527344 120.68140625 -152.98804688 119.86671875 -153.46484375 119.02734375 C-164.99602384 96.33339188 -165.73048256 71.01196789 -159.06640625 46.890625 C-150.96180686 22.07204208 -133.69451661 2.2658763 -111.0625 -10.50390625 C-75.5899894 -28.44346571 -31.45075227 -24.80092566 0 0 Z M-131.64355469 35.73193359 C-135.44047508 43.12848085 -136.45526951 51.51215256 -137.63916016 59.65625 C-138.0342608 62.30665984 -138.50148459 64.92823966 -139.01171875 67.55859375 C-141.26283953 79.26811216 -141.0325133 87.86232582 -137.9375 99.37109375 C-137.65390625 100.50417969 -137.3703125 101.63726562 -137.078125 102.8046875 C-135.14281376 110.06631185 -132.57121316 115.51636808 -128.0625 121.49609375 C-127.30786313 122.63933101 -126.55866437 123.78618722 -125.81640625 124.9375 C-120.21999017 132.90815321 -114.4925037 137.3837378 -105.54248047 141.35205078 C-102.63512075 142.69324862 -99.81287 144.17047846 -96.97265625 145.6484375 C-81.15756528 153.64071083 -66.13729633 159.43620299 -48.63995361 153.70220947 C-41.98825276 151.3404489 -35.51599704 148.59949004 -29.0625 145.74609375 C-28.13823212 145.34397675 -27.21396423 144.94185974 -26.26168823 144.52755737 C-14.37406403 139.26327792 -6.95488903 134.74435714 -0.0625 123.49609375 C1.18318257 122.03419085 2.44290774 120.58409473 3.71875 119.1484375 C8.14314101 113.47617408 9.6572089 106.9239289 11.4375 100.05859375 C11.79585937 98.79982422 12.15421875 97.54105469 12.5234375 96.24414062 C15.31931779 85.85712024 14.94117897 78.69943071 11.9375 68.49609375 C11.38942047 65.29967129 10.98648799 62.0859781 10.5625 58.87109375 C8.52007031 44.80401984 5.72532286 35.17083907 -4.0625 24.49609375 C-4.69768555 23.65340942 -4.69768555 23.65340942 -5.34570312 22.79370117 C-9.38754792 17.55696835 -13.81587652 15.18567551 -19.8125 12.55859375 C-21.71370308 11.70869431 -23.61474237 10.8584284 -25.515625 10.0078125 C-26.45857422 9.59063965 -27.40152344 9.1734668 -28.37304688 8.74365234 C-30.79738014 7.61907509 -33.10041203 6.39871446 -35.421875 5.078125 C-67.54111889 -12.61271549 -113.35678807 6.04211691 -131.64355469 35.73193359 Z " fill="#ECE36B" transform="translate(357.0625,267.50390625)"/>
<path d="M0 0 C0.81082031 0.5878125 1.62164062 1.175625 2.45703125 1.78125 C6.32650814 4.59541501 9.63486979 7.57978581 13 11 C13.88558594 11.87398437 14.77117187 12.74796875 15.68359375 13.6484375 C16.59238281 14.54820312 17.50117188 15.44796875 18.4375 16.375 C19.34371094 17.26960938 20.24992187 18.16421875 21.18359375 19.0859375 C52.90078358 51.29836065 68.89388285 96.50395465 69.0625 141.1875 C68.6147627 177.89047781 56.97715146 213.57296669 35 243 C34.14341797 244.17369141 34.14341797 244.17369141 33.26953125 245.37109375 C28.30631376 251.98478736 22.65894926 257.98578039 17 264 C16.12408203 264.95712891 16.12408203 264.95712891 15.23046875 265.93359375 C-12.79924454 295.52445563 -57.03919435 313.62157142 -97.33862305 315.12451172 C-119.38316935 315.59985786 -140.83120864 314.75022573 -162 308 C-162.74926758 307.76829102 -163.49853516 307.53658203 -164.27050781 307.29785156 C-177.30203824 303.21992198 -189.16937737 297.79977598 -201 291 C-202.00160156 290.42636719 -203.00320312 289.85273438 -204.03515625 289.26171875 C-210.02322388 285.62191294 -215.59627858 281.40131569 -221.1875 277.1875 C-221.95594238 276.61153076 -222.72438477 276.03556152 -223.51611328 275.44213867 C-224.22622559 274.8979126 -224.93633789 274.35368652 -225.66796875 273.79296875 C-226.31016357 273.3033667 -226.9523584 272.81376465 -227.61401367 272.30932617 C-228.3000769 271.66120972 -228.3000769 271.66120972 -229 271 C-229 270.34 -229 269.68 -229 269 C-229.56203125 268.7628125 -230.1240625 268.525625 -230.703125 268.28125 C-233.51894042 266.71052303 -235.47955416 264.78528536 -237.75 262.5 C-238.54921875 261.7059375 -239.3484375 260.911875 -240.171875 260.09375 C-242 258 -242 258 -242 256 C-242.66 256 -243.32 256 -244 256 C-276.61182244 221.99870142 -288.19429803 174.90443311 -287.33984375 129.2578125 C-286.70533544 103.76854353 -279.59345181 79.6492363 -268 57 C-267.67 56.34 -267.34 55.68 -267 55 C-266.34 55 -265.68 55 -265 55 C-264.83371094 54.15501953 -264.83371094 54.15501953 -264.6640625 53.29296875 C-262.62348215 46.24696485 -257.41804308 39.9750746 -252.87182617 34.34301758 C-251.14742815 32.18453997 -249.48381329 29.99059718 -247.8203125 27.78515625 C-243.97900285 22.84473327 -239.74954401 18.40569016 -235.3125 14 C-234.52520508 13.21544434 -233.73791016 12.43088867 -232.92675781 11.62255859 C-226.99282351 5.79402492 -220.92253935 0.63600362 -214 -4 C-212.94296875 -4.73476562 -211.8859375 -5.46953125 -210.796875 -6.2265625 C-208 -8 -208 -8 -206 -8 C-206 -8.66 -206 -9.32 -206 -10 C-205.12859375 -10.43570313 -204.2571875 -10.87140625 -203.359375 -11.3203125 C-202.78977051 -11.60527588 -202.22016602 -11.89023926 -201.63330078 -12.18383789 C-200.36135834 -12.81947934 -199.08888338 -13.45405615 -197.81591797 -14.08764648 C-194.8508703 -15.56501115 -191.89642632 -17.05418315 -188.9609375 -18.58984375 C-176.13092245 -25.25226203 -163.06159054 -29.57611402 -148.94995117 -32.56103516 C-147.03136192 -32.99293994 -145.13389769 -33.51545505 -143.23828125 -34.0390625 C-137.96114885 -35.37282907 -132.60064724 -35.71095363 -127.1875 -36.125 C-125.66286133 -36.25455078 -125.66286133 -36.25455078 -124.10742188 -36.38671875 C-79.25535677 -39.98860543 -35.78249078 -27.13545362 0 0 Z M-230 22 C-230.79535156 22.74121094 -231.59070313 23.48242188 -232.41015625 24.24609375 C-242.39519058 33.8437017 -250.10727504 45.04237795 -257 57 C-257.65742188 58.11503906 -258.31484375 59.23007812 -258.9921875 60.37890625 C-270.66838012 80.76541368 -277.9904914 104.75852906 -278.23828125 128.3203125 C-278.24802979 129.09328674 -278.25777832 129.86626099 -278.26782227 130.66265869 C-278.43617714 147.46405406 -278.3657819 163.64894503 -274 180 C-273.81808105 180.71124023 -273.63616211 181.42248047 -273.44873047 182.15527344 C-267.07557707 206.49741608 -254.30702921 229.00315154 -238 248 C-237.29101562 248.83273437 -236.58203125 249.66546875 -235.8515625 250.5234375 C-226.10374982 261.67887656 -215.27269707 270.7854654 -203 279 C-201.47826172 280.03253906 -201.47826172 280.03253906 -199.92578125 281.0859375 C-164.21801977 304.22054353 -118.15982608 311.94102564 -76.54003906 303.76806641 C-68.51815996 302.03643884 -60.6911668 299.86205575 -53 297 C-52.32308105 296.74879395 -51.64616211 296.49758789 -50.94873047 296.23876953 C-28.13431633 287.61271297 -9.05366029 275.28345985 9 259 C9.74894531 258.32453125 10.49789063 257.6490625 11.26953125 256.953125 C29.37362485 239.69708466 42.51661625 216.31660563 51 193 C51.36867188 192.00226563 51.73734375 191.00453125 52.1171875 189.9765625 C53.23471884 186.67594667 54.14723171 183.37935863 55 180 C55.18336914 179.27570801 55.36673828 178.55141602 55.55566406 177.80517578 C61.5641512 152.87147916 62.18425674 122.74520747 55 98 C54.75330566 97.13181641 54.50661133 96.26363281 54.25244141 95.36914062 C50.72316245 83.26256554 46.07946155 72.03436251 40 61 C39.44699219 59.96875 38.89398438 58.9375 38.32421875 57.875 C30.70735428 44.20463704 21.01008269 32.07124982 10 21 C9.53013672 20.5261084 9.06027344 20.0522168 8.57617188 19.56396484 C-20.01965642 -8.86283387 -60.73117972 -26.47534533 -101 -28 C-102.17030762 -28.04882324 -102.17030762 -28.04882324 -103.36425781 -28.09863281 C-152.0032839 -29.87745202 -194.99655831 -11.00867296 -230 22 Z " fill="#F7EF78" transform="translate(403,204)"/>
<path d="M0 0 C2.62901079 1.21122283 4.06404799 1.74734991 7 1.875 C10.1132719 0.22679723 10.83840021 -2.06735842 12.125 -5.25 C13.445 -5.25 14.765 -5.25 16.125 -5.25 C16.18558594 -3.97125 16.24617188 -2.6925 16.30859375 -1.375 C16.39307216 0.3333411 16.47771641 2.04167401 16.5625 3.75 C16.60181641 4.58917969 16.64113281 5.42835938 16.68164062 6.29296875 C16.88002786 10.23019239 17.13529308 14.12245525 17.65625 18.03125 C18.05118222 21.16437895 18.23124793 24.10014936 18.1875 27.25 C18.17847656 28.1059375 18.16945313 28.961875 18.16015625 29.84375 C18.14855469 30.4728125 18.13695312 31.101875 18.125 31.75 C17.135 31.75 16.145 31.75 15.125 31.75 C14.79628906 30.85539062 14.46757812 29.96078125 14.12890625 29.0390625 C9.64989956 17.65340322 4.07242738 8.66651745 -7.609375 3.578125 C-10.45043387 2.539669 -12.8433328 1.93561228 -15.875 1.75 C-16.67421875 1.688125 -17.4734375 1.62625 -18.296875 1.5625 C-27.8607623 1.13023391 -36.55124413 3.76880168 -44.02734375 9.86328125 C-55.96572677 22.05406138 -58.28473233 39.44720353 -58.24291992 55.76269531 C-58.0033854 68.63625697 -54.47455937 80.9617815 -45.5625 90.5625 C-42.05903322 93.85271228 -38.33039772 95.99282445 -33.875 97.75 C-32.97394531 98.10835938 -32.07289063 98.46671875 -31.14453125 98.8359375 C-27.26744035 99.91985539 -23.61845013 100.0937302 -19.625 100.0625 C-18.87355713 100.05686035 -18.12211426 100.0512207 -17.34790039 100.04541016 C-7.65404134 99.83442432 0.04413031 97.60628987 7.125 90.75 C10.63078303 86.89181815 13.89545461 82.83987511 17.125 78.75 C18.61 79.245 18.61 79.245 20.125 79.75 C16.56928697 89.55827122 8.30940314 98.61106491 -0.9765625 103.32421875 C-10.21982364 107.24866904 -17.94982185 108.02184779 -27.93408203 108.10009766 C-29.46028042 108.11650839 -30.98640687 108.14359694 -32.51220703 108.18212891 C-46.06000469 108.52148781 -58.19272156 106.82588152 -68.91796875 97.6328125 C-80.32342713 86.65989646 -87.47531353 73.81066101 -88.078125 57.68359375 C-88.40526484 39.13949685 -84.49360013 23.72935822 -71.2421875 9.96484375 C-62.94192007 2.19875194 -52.58274201 -3.99690996 -40.94921875 -4.37890625 C-39.42748047 -4.31509766 -39.42748047 -4.31509766 -37.875 -4.25 C-40.73853048 -2.34097968 -43.23904287 -1.28433564 -46.4375 -0.0625 C-61.12904439 6.00574659 -70.50911809 16.18760431 -77.13671875 30.46875 C-82.96022203 45.99809208 -81.59963449 64.75931607 -74.875 79.75 C-69.59313742 89.94989139 -61.92725002 99.45827272 -50.8125 103.5 C-49.18206557 103.97335193 -47.52985851 104.37076159 -45.875 104.75 C-46.66003906 104.32589844 -47.44507813 103.90179688 -48.25390625 103.46484375 C-62.14072404 95.71208044 -70.72051208 85.19123184 -75.40234375 69.8125 C-76.7077039 64.11638296 -77.05764374 58.692804 -77.0625 52.875 C-77.07474609 52.11058594 -77.08699219 51.34617187 -77.09960938 50.55859375 C-77.13610138 36.2294017 -71.18649989 21.93783351 -61.69140625 11.3046875 C-44.93243031 -4.9314304 -21.18227653 -10.08346387 0 0 Z " fill="#F4EB6F" transform="translate(322.875,293.25)"/>
<path d="M0 0 C0.99 0 1.98 0 3 0 C4.421875 1.609375 4.421875 1.609375 5.75 3.75 C6.19859375 4.44609375 6.6471875 5.1421875 7.109375 5.859375 C8 8 8 8 7.87890625 10.015625 C6.73989909 12.58725004 5.22360197 14.065892 3.1875 16 C2.50042969 16.66 1.81335938 17.32 1.10546875 18 C0.41066406 18.66 -0.28414062 19.32 -1 20 C-2.33679203 21.32986564 -3.67115345 22.66219493 -5 24 C-3.87980469 23.4225 -2.75960937 22.845 -1.60546875 22.25 C-0.1329735 21.49968395 1.33969164 20.74970125 2.8125 20 C3.55048828 19.6184375 4.28847656 19.236875 5.04882812 18.84375 C5.76103516 18.4828125 6.47324219 18.121875 7.20703125 17.75 C7.8616333 17.41484375 8.51623535 17.0796875 9.19067383 16.734375 C11 16 11 16 14 16 C15.60546875 17.96875 15.60546875 17.96875 17.1875 20.5 C17.71730469 21.3353125 18.24710938 22.170625 18.79296875 23.03125 C19.19128906 23.6809375 19.58960938 24.330625 20 25 C18.41332422 28.90285767 15.86649519 31.33520982 12.875 34.25 C11.96492188 35.14203125 11.05484375 36.0340625 10.1171875 36.953125 C9.41851562 37.62859375 8.71984375 38.3040625 8 39 C8.96421875 38.55527344 9.9284375 38.11054688 10.921875 37.65234375 C12.19764511 37.08012333 13.47370202 36.50854205 14.75 35.9375 C15.38421875 35.64294922 16.0184375 35.34839844 16.671875 35.04492188 C19.27171281 33.89395201 21.40913329 32.97571781 24.28125 33.09375 C26.46878009 34.24717495 27.40064708 35.50098859 28.75 37.5625 C29.17796875 38.20316406 29.6059375 38.84382813 30.046875 39.50390625 C30.36140625 39.99761719 30.6759375 40.49132812 31 41 C29.44620983 44.10758034 26.41764281 44.48782333 23.296875 45.56640625 C22.28466888 45.92483864 22.28466888 45.92483864 21.25201416 46.29051208 C19.82075312 46.79567822 18.38823517 47.29729493 16.95458984 47.7956543 C14.77015283 48.55549003 12.58994143 49.32654316 10.41015625 50.09960938 C9.01846556 50.58921412 7.62654544 51.07816733 6.234375 51.56640625 C5.58523132 51.79558243 4.93608765 52.02475861 4.26727295 52.26087952 C0.82279585 53.45379745 -2.40013161 54.28002632 -6 55 C-7.98 52.03 -9.96 49.06 -12 46 C-10.19385098 42.38770197 -8.88281157 40.66327599 -6.0625 37.9375 C-5.37285156 37.26589844 -4.68320313 36.59429687 -3.97265625 35.90234375 C-3.32167969 35.27457031 -2.67070312 34.64679688 -2 34 C-0.99777035 33.00223463 0.00312987 32.0031201 1 31 C-0.03640625 31.51691406 -1.0728125 32.03382813 -2.140625 32.56640625 C-3.51011516 33.23239119 -4.87992368 33.89772175 -6.25 34.5625 C-7.27287109 35.07586914 -7.27287109 35.07586914 -8.31640625 35.59960938 C-13.47392426 38.0782224 -13.47392426 38.0782224 -16.13452148 37.68261719 C-18.51810044 36.81041633 -19.35445492 35.744621 -20.8125 33.6875 C-21.25207031 33.09324219 -21.69164062 32.49898438 -22.14453125 31.88671875 C-23 30 -23 30 -22.87890625 28.08203125 C-19.53895876 20.17006675 -11.48757468 13.22249525 -5.63134766 6.97265625 C-3.52915044 4.72177262 -1.71471254 2.57206881 0 0 Z " fill="#F4EC6F" transform="translate(178,390)"/>
<path d="M0 0 C5.20097747 3.0972113 9.65495454 7.22940246 11.7109375 13.0546875 C12.93013358 23.01145553 7.57109983 31.78815431 2.4921875 39.9375 C0.46460789 42.34747401 -0.21114549 42.76273296 -3.2890625 43.0546875 C-5.54394531 42.05419922 -5.54394531 42.05419922 -7.9921875 40.484375 C-8.89066406 39.9171875 -9.78914063 39.35 -10.71484375 38.765625 C-12.11283203 37.85683594 -12.11283203 37.85683594 -13.5390625 36.9296875 C-14.45558594 36.34703125 -15.37210937 35.764375 -16.31640625 35.1640625 C-18.12232261 34.0150772 -19.92514102 32.86120614 -21.72460938 31.70214844 C-25.22566305 29.45299476 -28.75570674 27.25266702 -32.2890625 25.0546875 C-30.87271838 20.10127011 -28.75586797 16.20200831 -25.9765625 11.9296875 C-25.59822266 11.32253906 -25.21988281 10.71539062 -24.83007812 10.08984375 C-19.20800909 1.35708677 -10.44681213 -4.31421252 0 0 Z " fill="#F4EB6F" transform="translate(421.2890625,390.9453125)"/>
<path d="M0 0 C6.05196086 2.76070131 10.23365148 6.03370921 13.25390625 12.07421875 C13.96688698 19.26513868 14.18529193 25.52101757 9.75390625 31.48828125 C6.13079884 35.31896252 2.1168107 37.79209085 -3.1640625 38.3125 C-9.60668242 38.48515131 -14.49887493 38.01536127 -19.74609375 34.07421875 C-24.60102055 29.41009694 -26.87499376 25.73789743 -27.05859375 18.88671875 C-26.95412094 12.28751948 -25.65240987 7.89008935 -20.86328125 3.25 C-14.31018699 -1.78813161 -7.81687161 -2.63527535 0 0 Z " fill="#F3EB6F" transform="translate(245.74609375,447.92578125)"/>
<path d="M0 0 C5.7066583 3.32082376 10.20716555 7.91973186 12.76171875 14.08203125 C13.69704435 21.18398028 13.10742123 26.36400167 8.76171875 32.08203125 C4.26061982 36.70644796 -0.12127656 39.10117307 -6.55078125 39.51953125 C-13.27224621 39.35177422 -17.45135546 35.86895704 -22.05078125 31.26953125 C-26.01092356 25.49903817 -28.08021038 20.38298303 -26.93359375 13.3203125 C-25.18977935 7.70679762 -21.54680318 3.50632892 -16.48828125 0.58203125 C-11.10906702 -1.7072145 -5.47717246 -2.24630982 0 0 Z " fill="#F4EC6F" transform="translate(413.23828125,251.91796875)"/>
<path d="M0 0 C5.10519514 2.26982478 8.80864019 4.86028276 11.45703125 9.85546875 C13.47149267 15.82799255 13.14831674 21.87235209 10.546875 27.59765625 C7.88969086 32.18904509 4.14057183 35.19767752 -0.765625 37.16015625 C-4.2265625 37.49609375 -4.2265625 37.49609375 -8.140625 37.53515625 C-9.42710937 37.56351563 -10.71359375 37.591875 -12.0390625 37.62109375 C-17.46154109 36.95038885 -21.19908694 34.33558024 -24.578125 30.09765625 C-28.53513666 24.78395488 -28.25285128 19.55844858 -27.765625 13.16015625 C-25.81271792 7.07168124 -21.22932416 3.2440656 -15.86328125 0.015625 C-10.81790455 -2.04198673 -5.12839556 -1.55735176 0 0 Z " fill="#F4EC6F" transform="translate(298.765625,192.83984375)"/>
<path d="M0 0 C2.03470148 1.6559265 2.90030244 2.47805397 3.3984375 5.0859375 C3.34918105 9.89665109 3.06058062 13.04675003 0 17 C0.8971875 17.99 0.8971875 17.99 1.8125 19 C4.91957703 23.26113421 7 27.6733633 7 33 C1.555 33.495 1.555 33.495 -4 34 C-4.38671875 33.21753906 -4.7734375 32.43507813 -5.171875 31.62890625 C-5.69265625 30.61699219 -6.2134375 29.60507812 -6.75 28.5625 C-7.26046875 27.55316406 -7.7709375 26.54382813 -8.296875 25.50390625 C-9.75022736 22.85592684 -9.75022736 22.85592684 -12.203125 22.15234375 C-12.79609375 22.10207031 -13.3890625 22.05179687 -14 22 C-13.91621094 22.92683594 -13.83242188 23.85367187 -13.74609375 24.80859375 C-13.64425781 26.00613281 -13.54242188 27.20367187 -13.4375 28.4375 C-13.33308594 29.63246094 -13.22867187 30.82742188 -13.12109375 32.05859375 C-13.08113281 33.02925781 -13.04117187 33.99992187 -13 35 C-14 36 -14 36 -16.50390625 36.09765625 C-17.51324219 36.08605469 -18.52257812 36.07445312 -19.5625 36.0625 C-20.57441406 36.05347656 -21.58632813 36.04445313 -22.62890625 36.03515625 C-23.80259766 36.01775391 -23.80259766 36.01775391 -25 36 C-25.43266727 32.0170063 -25.85968625 28.03344927 -26.28173828 24.04931641 C-26.42573784 22.6972669 -26.57121391 21.34537372 -26.71826172 19.99365234 C-27.48106367 12.97276087 -28.21631209 6.06619481 -28 -1 C-7.50704225 -4.94366197 -7.50704225 -4.94366197 0 0 Z " fill="#F4EC6F" transform="translate(319,460)"/>
<path d="M0 0 C1.37616443 0.06116286 2.75109379 0.15024443 4.125 0.25 C5.27355469 0.31960938 5.27355469 0.31960938 6.4453125 0.390625 C10.04150385 1.24843211 12.17976436 2.60766218 15 5 C16.35546875 8.41796875 16.35546875 8.41796875 17.1875 12.1875 C17.96332489 15.8777059 17.96332489 15.8777059 19 19 C19.99 19.33 20.98 19.66 22 20 C21.58283774 27.78702894 19.18605731 32.97324555 13.5 38.375 C6.98073041 42.61252523 0.60809035 42.87396443 -7 42 C-12.88563563 39.98179959 -16.05978604 36.14667789 -19.08984375 30.8671875 C-21.59352921 25.73087141 -21.47866312 20.60035851 -21 15 C-19.5 11.3125 -19.5 11.3125 -18 9 C-17.34 9 -16.68 9 -16 9 C-15.773125 9.928125 -15.54625 10.85625 -15.3125 11.8125 C-13.75844647 15.58663 -12.54449058 16.18452921 -9 18 C-7.125 19.4375 -7.125 19.4375 -6 21 C-6.185625 21.61875 -6.37125 22.2375 -6.5625 22.875 C-6.706875 23.57625 -6.85125 24.2775 -7 25 C-6.0409375 26.0209375 -6.0409375 26.0209375 -5.0625 27.0625 C-1.96314949 31.47672649 -2.66999729 35.76579035 -3 41 C-2.34 41 -1.68 41 -1 41 C-0.79375 40.443125 -0.5875 39.88625 -0.375 39.3125 C1.59223543 36.00396768 3.89062714 34.2844372 7 32 C7.99 32 8.98 32 10 32 C11.07525194 29.34771188 12.09456151 26.71631546 13 24 C12.030625 23.87625 11.06125 23.7525 10.0625 23.625 C8.5465625 23.315625 8.5465625 23.315625 7 23 C6.67 22.34 6.34 21.68 6 21 C1.44293818 18.62902273 -2.85004829 17.61375362 -8 18 C-8.33 16.35 -8.66 14.7 -9 13 C-10.32 13.33 -11.64 13.66 -13 14 C-12.67 12.68 -12.34 11.36 -12 10 C-10.906875 9.731875 -9.81375 9.46375 -8.6875 9.1875 C-5.26833673 8.08641352 -4.22408019 7.57525074 -2 5 C-1.34 5 -0.68 5 0 5 C0 3.68 0 2.36 0 1 C0 0.67 0 0.34 0 0 Z " fill="#422B18" transform="translate(161,321)"/>
<path d="M0 0 C11.24616495 1.65962823 11.24616495 1.65962823 15 6 C16.72490528 10.57099899 17.40764785 15.16245747 18 20 C18.99 20 19.98 20 21 20 C21.49229868 25.90758413 20.53940592 30.15660243 17 35 C11.23340119 40.3605003 6.93542038 42.14972491 -1 42 C-1 40.68 -1 39.36 -1 38 C-0.01 38 0.98 38 2 38 C2 37.34 2 36.68 2 36 C3.093125 35.278125 4.18625 34.55625 5.3125 33.8125 C9.34084246 31.08888384 10.48147488 28.55557537 12 24 C11.29875 23.9175 10.5975 23.835 9.875 23.75 C6.34019913 22.82787803 4.02011262 21.0339534 1 19 C-2.2249208 17.75675853 -2.2249208 17.75675853 -5 17 C-7.22923777 21.32734391 -6.92470553 24.28400182 -6 29 C-5.01 29.33 -4.02 29.66 -3 30 C-3 33.96 -3 37.92 -3 42 C-9.19941562 41.40957946 -13.04504314 39.11786993 -17.25 34.5625 C-20.42521458 29.91307865 -21.29281053 26.11806186 -21.3125 20.5 C-21.32925781 19.3965625 -21.34601563 18.293125 -21.36328125 17.15625 C-20.96567355 13.70176593 -19.98922952 11.81326392 -18 9 C-16 12 -16 12 -16 15 C-14.02 15.66 -12.04 16.32 -10 17 C-10.33 16.01 -10.66 15.02 -11 14 C-11.66 14 -12.32 14 -13 14 C-12.67 12.68 -12.34 11.36 -12 10 C-10.9171875 9.87625 -10.9171875 9.87625 -9.8125 9.75 C-6.44778969 8.85274392 -4.64326193 7.21462486 -2 5 C-1.34 5 -0.68 5 0 5 C0.33 4.34 0.66 3.68 1 3 C0.67 2.67 0.34 2.34 0 2 C0 1.34 0 0.68 0 0 Z " fill="#412B18" transform="translate(428,321)"/>
<path d="M0 0 C3.18643961 1.35971001 4.04457958 3.53400012 5.74389648 6.50854492 C6.06880569 7.07236877 6.3937149 7.63619263 6.72846985 8.21710205 C7.41267198 9.41069323 8.09061285 10.60789235 8.76269531 11.80834961 C9.78767546 13.63667947 10.83319357 15.45194185 11.88256836 17.26635742 C17.41338207 26.96576483 17.41338207 26.96576483 18.10717773 31.89916992 C14.14717773 34.37416992 14.14717773 34.37416992 10.10717773 36.89916992 C6.87803131 33.67002349 5.28036771 30.87086194 3.10717773 26.89916992 C-0.85103085 27.46462829 -3.55872757 28.70819341 -6.89282227 30.89916992 C-6.33401367 31.91237305 -6.33401367 31.91237305 -5.76391602 32.94604492 C-5.29083008 33.83807617 -4.81774414 34.73010742 -4.33032227 35.64916992 C-3.8546582 36.53088867 -3.37899414 37.41260742 -2.88891602 38.32104492 C-1.89282227 40.89916992 -1.89282227 40.89916992 -1.98657227 43.08666992 C-3.20710645 45.52773829 -4.48685091 46.05207154 -6.95532227 47.14916992 C-7.68879883 47.48432617 -8.42227539 47.81948242 -9.17797852 48.16479492 C-9.74387695 48.40713867 -10.30977539 48.64948242 -10.89282227 48.89916992 C-15.45933847 41.56468161 -19.96061743 34.19059879 -24.39282227 26.77416992 C-25.06063721 25.67310913 -25.06063721 25.67310913 -25.74194336 24.54980469 C-26.35803467 23.51231079 -26.35803467 23.51231079 -26.98657227 22.45385742 C-27.53861328 21.5332251 -27.53861328 21.5332251 -28.10180664 20.59399414 C-28.89282227 18.89916992 -28.89282227 18.89916992 -28.89282227 15.89916992 C-22.69862807 11.96823899 -22.69862807 11.96823899 -19.70532227 11.71166992 C-16.61825696 13.73422995 -15.50552881 16.61616017 -13.89282227 19.89916992 C-13.89282227 20.55916992 -13.89282227 21.21916992 -13.89282227 21.89916992 C-13.26633789 21.53823242 -12.63985352 21.17729492 -11.99438477 20.80541992 C-10.76848633 20.10932617 -10.76848633 20.10932617 -9.51782227 19.39916992 C-8.70571289 18.93510742 -7.89360352 18.47104492 -7.05688477 17.99291992 C-4.89282227 16.89916992 -4.89282227 16.89916992 -2.89282227 16.89916992 C-3.54250977 15.86856445 -3.54250977 15.86856445 -4.20532227 14.81713867 C-4.76219727 13.91608398 -5.31907227 13.0150293 -5.89282227 12.08666992 C-6.44969727 11.19334961 -7.00657227 10.3000293 -7.58032227 9.37963867 C-8.89282227 6.89916992 -8.89282227 6.89916992 -8.89282227 3.89916992 C-2.53581875 -0.13508231 -2.53581875 -0.13508231 0 0 Z " fill="#F4EB6F" transform="translate(227.892822265625,206.100830078125)"/>
<path d="M0 0 C5.24585449 4.24132916 8.48556822 8.18408771 9.453125 15.015625 C9.68746863 23.41851797 9.11132111 29.76794683 3.39453125 36.078125 C-1.99028828 41.1548885 -7.69615977 43.46279625 -15.0625 43.8125 C-22.28045029 43.53616193 -26.97553959 40.83195793 -31.875 35.625 C-36.48771515 29.92755959 -38.76612543 24.12604882 -38.47265625 16.73828125 C-37.26085808 9.75601562 -33.54523806 3.83732475 -27.9453125 -0.44140625 C-18.11759152 -6.61941342 -10.0480074 -5.33159577 0 0 Z M-14.0625 -1.625 C-14.0625 -0.965 -14.0625 -0.305 -14.0625 0.375 C-13.7325 0.705 -13.4025 1.035 -13.0625 1.375 C-14.0625 3.375 -14.0625 3.375 -16.4375 4.3125 C-19.07026155 5.16996231 -19.07026155 5.16996231 -20.5625 6.9375 C-22.56956089 8.86093335 -24.35917526 9.00968585 -27.0625 9.375 C-27.0625 10.365 -27.0625 11.355 -27.0625 12.375 C-26.0725 12.705 -25.0825 13.035 -24.0625 13.375 C-24.0625 14.035 -24.0625 14.695 -24.0625 15.375 C-26.0425 14.715 -28.0225 14.055 -30.0625 13.375 C-30.3925 11.395 -30.7225 9.415 -31.0625 7.375 C-33.74276673 9.93873339 -34.97213204 11.329102 -35.30078125 15.1328125 C-35.45402524 22.08525056 -35.4302685 27.72101747 -31.0625 33.375 C-28.23634498 36.32206005 -24.97070151 39.07226616 -21.0625 40.375 C-19.0825 39.88 -19.0825 39.88 -17.0625 39.375 C-17.0625 35.745 -17.0625 32.115 -17.0625 28.375 C-18.0525 28.045 -19.0425 27.715 -20.0625 27.375 C-21.00919302 22.54686559 -21.08175846 19.83740705 -19.0625 15.375 C-17.47621392 15.97137091 -15.89357941 16.57745925 -14.3125 17.1875 C-13.43078125 17.52394531 -12.5490625 17.86039062 -11.640625 18.20703125 C-9.0625 19.375 -9.0625 19.375 -6.921875 21.01171875 C-5.04353795 22.67064511 -5.04353795 22.67064511 -2.0625 22.375 C-4.16955652 28.69616956 -6.54317303 30.73016144 -12.0625 34.375 C-12.0625 35.035 -12.0625 35.695 -12.0625 36.375 C-13.0525 36.375 -14.0425 36.375 -15.0625 36.375 C-15.0625 37.695 -15.0625 39.015 -15.0625 40.375 C-9.15491587 40.86729868 -4.90589757 39.91440592 -0.0625 36.375 C5.2980003 30.60840119 7.08722491 26.31042038 6.9375 18.375 C5.9475 18.375 4.9575 18.375 3.9375 18.375 C3.85113281 17.56675781 3.76476562 16.75851562 3.67578125 15.92578125 C2.84772632 9.10328025 2.84772632 9.10328025 -0.5 3.25 C-3.86837341 0.78533653 -6.09635833 -0.84144508 -10.25 -1.25 C-11.508125 -1.37375 -12.76625 -1.4975 -14.0625 -1.625 Z " fill="#E4DA67" transform="translate(442.0625,322.625)"/>
<path d="M0 0 C6.10216344 3.33006307 10.58909741 8.85714104 12.69140625 15.46875 C13.64313668 22.77272771 12.8388661 29.29416089 8.69140625 35.46875 C3.74807038 41.09015407 -1.84970569 44.71175576 -9.30859375 45.74609375 C-16.10197926 46.07780203 -21.77555887 43.93166055 -27.05859375 39.71875 C-32.99043289 34.11268693 -34.5580311 30.17857756 -34.80859375 22.03125 C-34.56980277 13.96807452 -33.23212429 9.39228054 -27.55859375 3.71875 C-18.06496022 -2.85376552 -10.9745085 -4.27380025 0 0 Z M-11.30859375 0.46875 C-11.30859375 1.45875 -11.30859375 2.44875 -11.30859375 3.46875 C-11.30859375 4.12875 -11.30859375 4.78875 -11.30859375 5.46875 C-11.90671875 5.7575 -12.50484375 6.04625 -13.12109375 6.34375 C-15.50187167 7.51617026 -15.50187167 7.51617026 -18.30859375 9.46875 C-20.29659193 10.17039642 -22.29557892 10.84247872 -24.30859375 11.46875 C-24.30859375 12.45875 -24.30859375 13.44875 -24.30859375 14.46875 C-22.98859375 14.13875 -21.66859375 13.80875 -20.30859375 13.46875 C-19.97859375 15.11875 -19.64859375 16.76875 -19.30859375 18.46875 C-18.29539063 18.54222656 -18.29539063 18.54222656 -17.26171875 18.6171875 C-16.3696875 18.69195312 -15.47765625 18.76671875 -14.55859375 18.84375 C-13.676875 18.91335938 -12.79515625 18.98296875 -11.88671875 19.0546875 C-8.4655588 19.60414652 -6.16692328 20.53889301 -3.80859375 23.09375 C-2.15629975 24.91923309 -2.15629975 24.91923309 1.69140625 24.46875 C1.19640625 25.4175 0.70140625 26.36625 0.19140625 27.34375 C-1.45283744 30.19153166 -1.45283744 30.19153166 -1.30859375 32.46875 C-2.18257812 32.62537109 -2.18257812 32.62537109 -3.07421875 32.78515625 C-5.64504798 33.57168617 -7.04259955 34.64440891 -9.05859375 36.40625 C-9.6721875 36.93089844 -10.28578125 37.45554687 -10.91796875 37.99609375 C-12.53744938 39.37352616 -12.53744938 39.37352616 -12.30859375 41.46875 C-12.96859375 41.46875 -13.62859375 41.46875 -14.30859375 41.46875 C-14.2621875 40.73269531 -14.21578125 39.99664062 -14.16796875 39.23828125 C-13.93968127 33.06636608 -14.02125307 30.17099461 -18.30859375 25.46875 C-18.05859375 22.65625 -18.05859375 22.65625 -17.30859375 20.46875 C-19.99701234 18.21629119 -21.9550125 16.58661042 -25.30859375 15.46875 C-26.49609375 12.40625 -26.49609375 12.40625 -27.30859375 9.46875 C-30.46255163 10.13411044 -30.46255163 10.13411044 -31.47265625 12.69921875 C-33.28572949 18.70608289 -33.30914356 25.10851822 -30.62109375 30.84375 C-27.60248793 36.04127903 -23.66042879 39.74695961 -18.30859375 42.46875 C-11.58195067 43.42477738 -4.87545352 43.29242767 1.046875 39.7265625 C6.23647045 35.75732323 9.1357649 30.7166104 10.69140625 24.46875 C10.69140625 23.14875 10.69140625 21.82875 10.69140625 20.46875 C9.70140625 20.13875 8.71140625 19.80875 7.69140625 19.46875 C6.58541517 15.97923528 5.83565295 12.4602902 5.046875 8.88671875 C3.36275186 4.64001055 1.72543547 3.50317411 -2.30859375 1.46875 C-4.80321186 0.79596315 -4.80321186 0.79596315 -7.18359375 0.71875 C-7.96476562 0.66203125 -8.7459375 0.6053125 -9.55078125 0.546875 C-10.42089844 0.50820313 -10.42089844 0.50820313 -11.30859375 0.46875 Z " fill="#E2D866" transform="translate(172.30859375,320.53125)"/>
<path d="M0 0 C-2.86353048 1.90902032 -5.36404287 2.96566436 -8.5625 4.1875 C-23.25404439 10.25574659 -32.63411809 20.43760431 -39.26171875 34.71875 C-45.08522203 50.24809208 -43.72463449 69.00931607 -37 84 C-31.02611193 95.53627316 -22.69046939 104.39912783 -10.3125 108.8125 C-7.12663496 109.79361415 -4.35958671 110.32512129 -1 110 C-1 110.66 -1 111.32 -1 112 C-11.09029914 112.86985337 -20.80653702 109.74749976 -28.9375 103.6875 C-40.62721539 93.66774395 -48.02196905 81.42483752 -50 66 C-51.18518526 47.36366166 -48.17538023 31.23471475 -35.6875 16.625 C-26.17366063 6.74277964 -14.11688672 -0.59194061 0 0 Z " fill="#EEE56C" transform="translate(285,289)"/>
<path d="M0 0 C3.35620271 1.38877354 5.07298728 2.91677965 7 6 C7 8 7 8 4.625 10.4375 C3.75875 11.283125 2.8925 12.12875 2 13 C-0.50031654 16.75047482 -0.53603554 18.55856266 0 23 C1.7698823 26.1866503 1.7698823 26.1866503 5 28 C8.28552484 28.49906706 10.90724683 28.22141339 14 27 C17.09188163 24.12688358 18.67782904 20.96651288 20 17 C23.14737182 17.69941596 26.02588876 18.76078698 29 20 C27.98382148 26.79046349 24.08071394 32.44718109 18.9375 36.9375 C13.80029096 40.54447656 9.31592501 41.94215456 3 41 C-3.89809881 38.68394142 -7.41128263 35.06395493 -10.75 28.625 C-13.01050131 22.06954619 -12.26617093 17.3974466 -9.3515625 11.28515625 C-6.83074628 7.02308259 -3.48759672 3.48759672 0 0 Z " fill="#F3EA6E" transform="translate(169,253)"/>
<path d="M0 0 C4.75861457 2.23060058 9.26876199 5.35562773 12.75 9.3125 C13.6875 12.1875 13.6875 12.1875 13.75 14.3125 C10.285 16.2925 10.285 16.2925 6.75 18.3125 C6.25371094 17.81878906 5.75742187 17.32507813 5.24609375 16.81640625 C1.91620099 13.67607095 -0.52767097 11.54511443 -4.9375 10.125 C-9.00827236 10.35542108 -10.44381526 11.42378041 -13.25 14.3125 C-14.70147903 17.21545805 -14.62239025 19.08511779 -14.25 22.3125 C-11.16061532 26.94657702 -8.46570117 29.12918323 -3.25 31.3125 C-5.125 37.0625 -5.125 37.0625 -6.25 39.3125 C-13.34551012 38.95772449 -17.97886625 34.76293378 -22.625 29.75 C-26.37849407 24.1197589 -27.09596749 18.99668755 -26.25 12.3125 C-24.27900999 6.68718797 -20.4563103 3.21025204 -15.421875 0.23046875 C-10.67326824 -1.77658627 -4.8804482 -1.49124806 0 0 Z " fill="#F4EC6F" transform="translate(367.25,210.6875)"/>
<path d="M0 0 C2.59990349 1.00823397 3.17412988 2.02909304 4.54443359 4.43041992 C5.18832031 5.54223633 5.18832031 5.54223633 5.84521484 6.67651367 C6.27962891 7.45639648 6.71404297 8.2362793 7.16162109 9.03979492 C7.60376953 9.80420898 8.04591797 10.56862305 8.50146484 11.35620117 C10.63119519 15.08162072 12.59278753 18.73408267 14.03662109 22.78979492 C14.77267578 22.27288086 15.50873047 21.7559668 16.26708984 21.22338867 C17.24291016 20.56467773 18.21873047 19.9059668 19.22412109 19.22729492 C20.66851562 18.23536133 20.66851562 18.23536133 22.14208984 17.22338867 C25.03662109 15.78979492 25.03662109 15.78979492 27.78662109 15.92260742 C30.91385391 17.12789507 31.65653824 18.81172139 33.03662109 21.78979492 C33.03662109 22.44979492 33.03662109 23.10979492 33.03662109 23.78979492 C31.15649414 25.21020508 31.15649414 25.21020508 28.54833984 26.82885742 C27.61441406 27.40893555 26.68048828 27.98901367 25.71826172 28.58666992 C24.73019531 29.18995117 23.74212891 29.79323242 22.72412109 30.41479492 C21.74765625 31.02581055 20.77119141 31.63682617 19.76513672 32.26635742 C12.41959926 36.78979492 12.41959926 36.78979492 9.03662109 36.78979492 C7.2590332 34.390625 7.2590332 34.390625 5.31396484 31.05932617 C4.96781631 30.47189133 4.62166779 29.88445648 4.26502991 29.27922058 C3.53290119 28.03211849 2.80610711 26.78187179 2.08422852 25.52880859 C0.98513379 23.62140668 -0.12903842 21.72354392 -1.24658203 19.8269043 C-7.11598509 9.79235362 -7.11598509 9.79235362 -8.96337891 4.78979492 C-7.89230774 3.92030176 -6.80591947 3.06965288 -5.71337891 2.22729492 C-5.11009766 1.75163086 -4.50681641 1.2759668 -3.88525391 0.78588867 C-1.96337891 -0.21020508 -1.96337891 -0.21020508 0 0 Z " fill="#F4EB6F" transform="translate(355.96337890625,441.210205078125)"/>
<path d="M0 0 C2.97 0 5.94 0 9 0 C9 0.66 9 1.32 9 2 C8.26136719 2.14695312 7.52273438 2.29390625 6.76171875 2.4453125 C-7.18392256 5.52859279 -18.66772157 12.20343199 -26.75 24.1875 C-35.65380376 39.05478163 -38.67281595 56.2462918 -34.9375 73.25 C-30.4505263 88.36732729 -22.80513328 99.80560825 -8.9296875 107.58984375 C-6.00303887 108.99853729 -3.10208637 110.04728208 0 111 C-5.40294611 112.91433055 -10.06976928 110.32444301 -15 108 C-28.44261907 99.66299106 -36.44314245 87.04120579 -40.39575195 71.94384766 C-41.3772495 67.1620709 -41.49054725 62.49342137 -41.4375 57.625 C-41.42775146 56.61767822 -41.41800293 55.61035645 -41.40795898 54.57250977 C-41.0401957 39.10276524 -35.12197001 26.24096594 -24.5 15 C-17.22565792 8.3748555 -9.13422674 4.49295303 0 1 C0 0.67 0 0.34 0 0 Z " fill="#4B351D" transform="translate(283,288)"/>
<path d="M0 0 C5.59210526 5.4981203 5.59210526 5.4981203 7.8125 8.4375 C8.23144531 8.97246094 8.65039062 9.50742187 9.08203125 10.05859375 C10.47423676 13.0029603 10.46885689 14.75675029 10 18 C8.48236879 20.84293843 6.596095 23.33228745 4.625 25.875 C4.11710937 26.56335938 3.60921875 27.25171875 3.0859375 27.9609375 C0.3109903 31.64139379 0.3109903 31.64139379 -1 33 C-1.66 33 -2.32 33 -3 33 C-3.33 31.824375 -3.66 30.64875 -4 29.4375 C-4.185625 28.77621094 -4.37125 28.11492187 -4.5625 27.43359375 C-5.78057417 20.65805618 -4.4222037 15.00967512 -2.5 8.5625 C-2.26152344 7.73556641 -2.02304687 6.90863281 -1.77734375 6.05664062 C-1.193157 4.03535448 -0.59772561 2.01732395 0 0 Z " fill="#442E19" transform="translate(380,329)"/>
<path d="M0 0 C2 1 2 1 3.0703125 3.80859375 C5.99030549 13.85553259 7.47671838 22.00443466 4 32 C-8.23287531 20.50851107 -8.23287531 20.50851107 -8.9375 14.0625 C-8.46264989 8.32955352 -3.70995809 4.04120434 0 0 Z " fill="#412B18" transform="translate(206,330)"/>
<path d="M0 0 C2.9375 2.0625 2.9375 2.0625 5 5 C5.1875 8.5 5.1875 8.5 4 12 C0.96833728 15.32039251 -1.27828375 16.77208961 -5.5625 18.125 C-9 18 -9 18 -11.9375 15.9375 C-14 13 -14 13 -14.625 10 C-13.18531556 3.0895147 -6.7884754 -0.95038656 0 0 Z " fill="#422B18" transform="translate(411,262)"/>
<path d="M0 0 C5.00873812 0.37565536 8.11572459 2.09429834 12.16796875 4.84375 C14.1031655 6.16711712 14.1031655 6.16711712 17 7 C16.58443583 11.84824868 14.62551755 13.88036862 11 17 C8.6875 18.3125 8.6875 18.3125 7 19 C7 19.66 7 20.32 7 21 C6.01 21 5.02 21 4 21 C3.67 21.99 3.34 22.98 3 24 C2.34 24 1.68 24 1 24 C1.04640625 23.25234375 1.0928125 22.5046875 1.140625 21.734375 C1.63729871 15.68776653 1.63729871 15.68776653 -1.0625 10.625 C-1.701875 10.08875 -2.34125 9.5525 -3 9 C-2.82919705 5.58394108 -1.64784469 2.96612043 0 0 Z " fill="#F2EA6E" transform="translate(423,338)"/>
<path d="M0 0 C4.08136534 0.07558084 6.28934953 0.39868037 9.4375 3.0625 C11.46049347 6.86572773 11.72510895 9.77730668 11 14 C8.86111111 18.56944444 8.86111111 18.56944444 6 20 C3.125 20.3125 3.125 20.3125 0 20 C-2.30275556 18.1329009 -3.67823871 16.64352259 -5 14 C-5.37934197 8.97371884 -5.02448301 6.07141944 -2 2 C-1.34 1.34 -0.68 0.68 0 0 Z " fill="#412B18" transform="translate(288,201)"/>
<path d="M0 0 C5.40919811 0.88514151 5.40919811 0.88514151 7.4375 3.5625 C8.17856494 7.93309892 7.94503579 11.47821898 6.0625 15.5 C4.4375 17.5625 4.4375 17.5625 2.4375 19.5625 C-4.62648537 20.23526051 -4.62648537 20.23526051 -7.5625 18.125 C-9.09230938 14.20486346 -9.31349566 10.70370462 -8.5625 6.5625 C-6.68619118 2.46797719 -4.53713076 0.71638907 0 0 Z " fill="#3F2917" transform="translate(239.5625,456.4375)"/>
<path d="M0 0 C1.41623216 -0.05447047 2.83308191 -0.09300508 4.25 -0.125 C5.03890625 -0.14820313 5.8278125 -0.17140625 6.640625 -0.1953125 C9.20731941 0.0171622 10.7916067 0.71345895 13 2 C13 2.66 13 3.32 13 4 C15.97 4.495 15.97 4.495 19 5 C18.11124271 9.14753404 17.36656823 12.11357737 13.6875 14.5 C12.800625 14.995 11.91375 15.49 11 16 C7.44768577 18.52975984 7.44768577 18.52975984 5 22 C4.34 22 3.68 22 3 22 C2.97421875 21.26394531 2.9484375 20.52789062 2.921875 19.76953125 C2.57315457 13.76995483 2.15129223 10.56642145 -2 6 C-1.7915954 3.56861295 -1.08574545 2.17149089 0 0 Z " fill="#F2E96E" transform="translate(155,340)"/>
<path d="M0 0 C-1.40921773 10.33426335 -4.64514709 15.77075179 -12 23 C-12.66 23.99 -13.32 24.98 -14 26 C-14.66 26 -15.32 26 -16 26 C-18.60465116 14.23255814 -18.60465116 14.23255814 -18 10 C-15.09371749 6.52630043 -11.91798993 4.71685997 -7.875 2.75 C-6.82054687 2.22921875 -5.76609375 1.7084375 -4.6796875 1.171875 C-2 0 -2 0 0 0 Z " fill="#432D19" transform="translate(224,294)"/>
<path d="M0 0 C1.15242188 0.54785156 2.30484375 1.09570312 3.4921875 1.66015625 C4.79542969 2.29244141 4.79542969 2.29244141 6.125 2.9375 C1.60039074 6.49255013 -1.45755961 8.19769378 -7.296875 8.1328125 C-8.83408203 8.12314453 -8.83408203 8.12314453 -10.40234375 8.11328125 C-11.46582031 8.09652344 -12.52929688 8.07976562 -13.625 8.0625 C-15.24341797 8.04896484 -15.24341797 8.04896484 -16.89453125 8.03515625 C-19.55491278 8.01161305 -22.21484336 7.97872799 -24.875 7.9375 C-23.4850021 5.07698376 -22.04635374 2.69396134 -20 0.25 C-19.50757813 -0.35199219 -19.01515625 -0.95398438 -18.5078125 -1.57421875 C-13.00525029 -6.58971206 -5.76580725 -2.76523409 0 0 Z " fill="#48321B" transform="translate(282.875,256.0625)"/>
<path d="M0 0 C4.24246976 2.17717008 7.25683318 6.1197262 9.92578125 9.98828125 C9.92578125 10.64828125 9.92578125 11.30828125 9.92578125 11.98828125 C6.23855198 12.10529329 2.55180583 12.1758017 -1.13671875 12.23828125 C-2.17505859 12.27179688 -3.21339844 12.3053125 -4.28320312 12.33984375 C-10.81714468 12.42281444 -14.73548575 11.83519808 -20.07421875 7.98828125 C-15.45950223 2.77564465 -7.04313649 -1.44362425 0 0 Z " fill="#48321B" transform="translate(319.07421875,252.01171875)"/>
<path d="M0 0 C2.3125 0 2.3125 0 5 1 C6.41288147 3.61051928 7.135305 6.13285344 8 9 C9.32 6.03 10.64 3.06 12 0 C13.65 0 15.3 0 17 0 C17.33 6.27 17.66 12.54 18 19 C16.68 19 15.36 19 14 19 C13.67 16.03 13.34 13.06 13 10 C12.01 12.97 11.02 15.94 10 19 C8.68 18.67 7.36 18.34 6 18 C4.75 14.9375 4.75 14.9375 4 12 C3.34 14.31 2.68 16.62 2 19 C1.01 19 0.02 19 -1 19 C-1.10349817 12.58311325 -0.74507544 6.37305598 0 0 Z " fill="#4A4A4A" transform="translate(416,486)"/>
<path d="M0 0 C2.63007775 1.26111929 5.25376131 2.53324591 7.875 3.8125 C8.62136719 4.16892578 9.36773437 4.52535156 10.13671875 4.89257812 C10.85214844 5.24384766 11.56757813 5.59511719 12.3046875 5.95703125 C12.96452637 6.27647705 13.62436523 6.59592285 14.30419922 6.92504883 C16 8 16 8 18 11 C17.828125 13.55859375 17.828125 13.55859375 17.25 16.4375 C17.06953125 17.38496094 16.8890625 18.33242188 16.703125 19.30859375 C16.05705596 21.78160248 15.24055658 23.77646003 14 26 C11.29108424 23.03565298 8.63256871 20.03232914 6 17 C5.46890625 16.40445312 4.9378125 15.80890625 4.390625 15.1953125 C0.56244179 10.48889902 0.1320134 5.96460566 0 0 Z " fill="#402A17" transform="translate(364,294)"/>
<path d="M0 0 C3.07864729 0.62305957 4.82094078 2.18554315 6.96875 4.3984375 C8.48391221 7.42876192 8.13903053 10.04958712 7.96875 13.3984375 C6.96875 16.3359375 6.96875 16.3359375 5.96875 18.3984375 C1.85348708 17.75670096 -1.33513435 15.52857592 -4.78125 13.3359375 C-5.38324219 12.95888672 -5.98523438 12.58183594 -6.60546875 12.19335938 C-8.08374143 11.26650587 -9.55791089 10.33311361 -11.03125 9.3984375 C-10.52726021 6.44789532 -10.16502824 4.5964293 -8.46875 2.0859375 C-5.61557456 0.11066219 -3.45070972 -0.16738517 0 0 Z " fill="#412A18" transform="translate(414.03125,401.6015625)"/>
<path d="M0 0 C1.98 0 3.96 0 6 0 C5.01 0.33 4.02 0.66 3 1 C3 1.99 3 2.98 3 4 C3.99 4.33 4.98 4.66 6 5 C5.34 5 4.68 5 4 5 C4 5.66 4 6.32 4 7 C0.48141867 10.25494123 -3.15409462 12.55946315 -8 13 C-8.33 13.99 -8.66 14.98 -9 16 C-7.68 15.67 -6.36 15.34 -5 15 C-4.67 16.65 -4.34 18.3 -4 20 C-3.0925 19.79375 -2.185 19.5875 -1.25 19.375 C2.21546863 18.97513823 3.09470856 19.34524705 6 21 C4.39884424 21.2493357 2.79379841 21.47378648 1.1875 21.6875 C0.29417969 21.81511719 -0.59914062 21.94273437 -1.51953125 22.07421875 C-4 22 -4 22 -5.69140625 20.5703125 C-6.12324219 20.05210937 -6.55507812 19.53390625 -7 19 C-7.70125 18.731875 -8.4025 18.46375 -9.125 18.1875 C-11 17 -11 17 -11.75 13.875 C-11.8325 12.92625 -11.915 11.9775 -12 11 C-14.16275904 11.83968364 -14.16275904 11.83968364 -15.0625 14 C-16.12430632 17.39778022 -16.42182811 20.56960443 -16.65625 24.109375 C-16.7696875 24.73328125 -16.883125 25.3571875 -17 26 C-17.66 26.33 -18.32 26.66 -19 27 C-19.47703124 19.79152794 -19.42951089 13.96019814 -15 8 C-11.78963158 4.71419211 -8.00030839 1.0930376 -3.3125 0.875 C-2.549375 0.91625 -1.78625 0.9575 -1 1 C-0.67 1.99 -0.34 2.98 0 4 C0.66 3.01 1.32 2.02 2 1 C1.34 0.67 0.68 0.34 0 0 Z " fill="#EEE56C" transform="translate(157,319)"/>
<path d="M0 0 C3.87485635 -0.08751413 7.74945643 -0.14056435 11.625 -0.1875 C13.26662109 -0.22520508 13.26662109 -0.22520508 14.94140625 -0.26367188 C20.79681683 -0.31690288 25.06324498 -0.29983099 30 3 C30 3.66 30 4.32 30 5 C14.56234719 11.58924205 14.56234719 11.58924205 6.8125 9.375 C4.01585024 7.25340363 2.10928104 4.81237472 0 2 C0 1.34 0 0.68 0 0 Z " fill="#422B18" transform="translate(259,425)"/>
<path d="M0 0 C1.67642578 0.02030273 1.67642578 0.02030273 3.38671875 0.04101562 C6.13331211 0.07622836 8.87890289 0.12547904 11.625 0.1875 C10.71873216 1.4864839 9.79950463 2.77643167 8.875 4.0625 C8.36453125 4.78179687 7.8540625 5.50109375 7.328125 6.2421875 C4.53642828 9.43086861 2.29706254 10.10349218 -1.875 10.625 C-7.80973024 10.52383983 -13.09094714 7.65339134 -18.375 5.1875 C-18.375 4.5275 -18.375 3.8675 -18.375 3.1875 C-12.56075788 -0.69886184 -6.80263077 -0.15624417 0 0 Z " fill="#402917" transform="translate(317.375,424.8125)"/>
<path d="M0 0 C2.08218362 -0.10832169 4.16599129 -0.18573541 6.25 -0.25 C7.99023438 -0.31960938 7.99023438 -0.31960938 9.765625 -0.390625 C13 0 13 0 15.3125 1.67578125 C17.19326556 4.26618752 17.9764206 6.33888474 18.75 9.4375 C18.99234375 10.36433594 19.2346875 11.29117187 19.484375 12.24609375 C19.98228443 14.90538276 20.09791336 17.30248692 20 20 C12.98397482 17.99433193 9.79993718 15.23473674 5.5 9.4375 C4.96375 8.75236328 4.4275 8.06722656 3.875 7.36132812 C0 2.32481665 0 2.32481665 0 0 Z " fill="#452E19" transform="translate(338,267)"/>
<path d="M0 0 C1.17949219 0.01804687 2.35898438 0.03609375 3.57421875 0.0546875 C4.92966797 0.08949219 4.92966797 0.08949219 6.3125 0.125 C4.867935 2.31418614 3.41593896 4.49743664 1.94921875 6.671875 C0.96695614 8.14409676 0.00419536 9.63003237 -0.91796875 11.140625 C-3.93748245 15.88115845 -7.38601104 18.24080635 -12.6875 20.125 C-13.3475 20.125 -14.0075 20.125 -14.6875 20.125 C-14.23601905 17.873615 -13.77605496 15.62393002 -13.3125 13.375 C-13.05726563 12.12203125 -12.80203125 10.8690625 -12.5390625 9.578125 C-10.63326539 1.85003028 -8.09109077 -0.16021962 0 0 Z " fill="#442E19" transform="translate(243.6875,266.875)"/>
<path d="M0 0 C9.65889403 1.86473225 13.72762442 8.10263187 18.9453125 15.76171875 C21 19 21 19 21 20 C19.10545628 20.10877763 17.20908246 20.18594173 15.3125 20.25 C13.72888672 20.31960938 13.72888672 20.31960938 12.11328125 20.390625 C8.11855638 19.88940482 6.69237406 18.99152673 4 16 C2.87916976 13.31287675 2.26842461 10.59678207 1.6875 7.75 C1.51927734 7.00492187 1.35105469 6.25984375 1.17773438 5.4921875 C0.76784592 3.66525611 0.38153286 1.83306289 0 0 Z " fill="#452E19" transform="translate(229,401)"/>
<path d="M0 0 C-0.80633293 6.28939683 -2.04690924 12.49760247 -6 17.5625 C-10.57199062 19.75324551 -15.01755145 19.31412986 -20 19 C-18.33542367 15.32553628 -16.12172353 12.19256954 -13.75 8.9375 C-13.00234375 7.89464844 -12.2546875 6.85179687 -11.484375 5.77734375 C-8.13885985 2.03731031 -5.08479638 0 0 0 Z " fill="#432D19" transform="translate(358,402)"/>
<path d="M0 0 C0.74866766 2.66712853 1.40094385 5.29949292 2 8 C2.28875 9.175625 2.5775 10.35125 2.875 11.5625 C1.72238811 16.09061816 0.0692256 16.58794934 -3.875 18.9375 C-9.56923077 22 -9.56923077 22 -12 22 C-11.5457729 15.39099568 -8.92753131 0 0 0 Z " fill="#452F1A" transform="translate(376,372)"/>
<path d="M0 0 C1.66666667 1.66666667 3.33333333 3.33333333 5 5 C5.721875 5.5775 6.44375 6.155 7.1875 6.75 C9.86688995 10.07613925 10.62120481 13.78126143 11 18 C10.67 19.32 10.34 20.64 10 22 C5.71 19.69 1.42 17.38 -3 15 C-1.125 1.125 -1.125 1.125 0 0 Z " fill="#442E19" transform="translate(212,372)"/>
<path d="M0 0 C0 0.66 0 1.32 0 2 C2.64 2.33 5.28 2.66 8 3 C6.82322765 5.3535447 5.7179704 6.0301574 3.5625 7.5 C1.48541231 8.9223064 -0.2099564 10.2099564 -2 12 C-3.32 12 -4.64 12 -6 12 C-6.33 12.99 -6.66 13.98 -7 15 C-6.01 14.67 -5.02 14.34 -4 14 C-3.67 15.65 -3.34 17.3 -3 19 C-9.25969872 17.14527445 -9.25969872 17.14527445 -11.12109375 14.265625 C-11.90296768 11.98626372 -12.21563728 10.40721612 -12 8 C-9.06985121 2.84017571 -6.00823206 0 0 0 Z " fill="#F4EB6F" transform="translate(422,320)"/>
<path d="M0 0 C0.66 0.33 1.32 0.66 2 1 C1.401875 1.70125 0.80375 2.4025 0.1875 3.125 C-5.22261309 10.23543435 -5.96873718 16.18449168 -5 25 C-3.41361572 30.41588183 -0.76571021 33.90228836 4 37 C4.639375 37.433125 5.27875 37.86625 5.9375 38.3125 C8.83760889 39.27920296 11.06674748 38.6666483 14 38 C14 38.66 14 39.32 14 40 C14.9590625 40.185625 14.9590625 40.185625 15.9375 40.375 C16.618125 40.58125 17.29875 40.7875 18 41 C18.33 41.66 18.66 42.32 19 43 C12.07268401 43.51103151 6.70738847 43.21541555 1 39 C-5.28826618 33.29257768 -8.91583706 27.14778752 -9.5 18.625 C-9.27061584 12.00726697 -5.98713921 6.25567153 -1.6875 1.375 C-1.130625 0.92125 -0.57375 0.4675 0 0 Z " fill="#D6CB60" transform="translate(413,323)"/>
<path d="M0 0 C9.60088865 9.45566512 9.60088865 9.45566512 10.5 15.1875 C9.79251696 20.58205821 8.44540272 25.76041512 7 31 C4.78066488 27.67099732 4.38452486 25.49947353 3.7109375 21.58203125 C3.49179687 20.32841797 3.27265625 19.07480469 3.046875 17.78320312 C2.8227625 16.45966151 2.59880615 15.13609345 2.375 13.8125 C2.14388247 12.47710031 1.91211899 11.14181224 1.6796875 9.80664062 C1.1134198 6.53880413 0.55380278 3.26996806 0 0 Z " fill="#452F19" transform="translate(367,312)"/>
<path d="M0 0 C15.21296067 -1.78976008 15.21296067 -1.78976008 19.83398438 1.17773438 C23.19509587 4.34040386 25.65832265 8.04621311 28 12 C27.01 12.495 27.01 12.495 26 13 C23.49389648 12.13549805 23.49389648 12.13549805 20.37109375 10.76171875 C18.69563477 10.02598633 18.69563477 10.02598633 16.98632812 9.27539062 C15.2296582 8.48938477 15.2296582 8.48938477 13.4375 7.6875 C12.26251953 7.17509766 11.08753906 6.66269531 9.87695312 6.13476562 C1.12937152 2.25874304 1.12937152 2.25874304 0 0 Z " fill="#452F1A" transform="translate(315,267)"/>
<path d="M0 0 C1.23322843 3.58348444 0.7721117 6.18697824 0.00390625 9.859375 C-0.22490234 10.97441406 -0.45371094 12.08945312 -0.68945312 13.23828125 C-0.93630859 14.39714844 -1.18316406 15.55601562 -1.4375 16.75 C-1.68048828 17.92433594 -1.92347656 19.09867187 -2.17382812 20.30859375 C-2.77480798 23.20743777 -3.38380502 26.1043588 -4 29 C-4.66 29 -5.32 29 -6 29 C-6.53321262 26.77376199 -7.05110119 24.54384996 -7.5625 22.3125 C-7.85253906 21.07113281 -8.14257812 19.82976562 -8.44140625 18.55078125 C-9.20479254 13.69820686 -8.95135269 11.37775179 -6.15234375 7.32421875 C-5.42144531 6.45410156 -4.69054687 5.58398438 -3.9375 4.6875 C-3.20402344 3.80449219 -2.47054687 2.92148437 -1.71484375 2.01171875 C-1.14894531 1.34785156 -0.58304688 0.68398438 0 0 Z " fill="#442E19" transform="translate(219,313)"/>
<path d="M0 0 C-2.27415542 2.27415542 -4.17268735 3.07831299 -7.12109375 4.34765625 C-8.13880859 4.78787109 -9.15652344 5.22808594 -10.20507812 5.68164062 C-11.27177734 6.13732422 -12.33847656 6.59300781 -13.4375 7.0625 C-14.50033203 7.52205078 -15.56316406 7.98160156 -16.65820312 8.45507812 C-24.50492086 11.83497362 -24.50492086 11.83497362 -28 13 C-21.44854969 -0.73284776 -14.06904944 -1.21751389 0 0 Z " fill="#442E19" transform="translate(273,267)"/>
<path d="M0 0 C0.66 0.33 1.32 0.66 2 1 C-0.68849612 5.53937034 -3.48341687 10.09957441 -8 13 C-13.88405121 14.49281508 -20.04262748 13.70086736 -26 13 C-21.39644047 9.31875873 -16.21355816 7.1697818 -10.875 4.75 C-9.86050781 4.27820313 -8.84601563 3.80640625 -7.80078125 3.3203125 C-6.83269531 2.87945312 -5.86460937 2.43859375 -4.8671875 1.984375 C-3.53856689 1.37674316 -3.53856689 1.37674316 -2.18310547 0.75683594 C-1.10246826 0.38220215 -1.10246826 0.38220215 0 0 Z " fill="#452E19" transform="translate(341,408)"/>
<path d="M0 0 C5.62545169 1.71371376 10.89957432 4.08691176 16.25 6.5 C17.16007812 6.90347656 18.07015625 7.30695313 19.0078125 7.72265625 C19.87664062 8.11324219 20.74546875 8.50382812 21.640625 8.90625 C22.42985352 9.26009766 23.21908203 9.61394531 24.03222656 9.97851562 C26 11 26 11 28 13 C13.89716933 14.785587 13.89716933 14.785587 9.11523438 11.83837891 C5.49339781 8.68337076 2.64940077 4.98840677 0 1 C0 0.67 0 0.34 0 0 Z " fill="#422C18" transform="translate(244,408)"/>
<path d="M0 0 C4.62 0 9.24 0 14 0 C14 1.32 14 2.64 14 4 C12.35 4 10.7 4 9 4 C9 8.95 9 13.9 9 19 C7.68 19 6.36 19 5 19 C5 14.05 5 9.1 5 4 C3.35 3.67 1.7 3.34 0 3 C0 2.01 0 1.02 0 0 Z " fill="#434343" transform="translate(401,486)"/>
<path d="M0 0 C1.33079625 3.99238875 0.23203192 6.94472736 -0.8125 10.875 C-0.99103516 11.58269531 -1.16957031 12.29039062 -1.35351562 13.01953125 C-2.32952706 16.80377774 -3.44199962 20.40461452 -5 24 C-7 23 -7 23 -7.66796875 21.109375 C-7.83941406 20.33078125 -8.01085937 19.5521875 -8.1875 18.75 C-8.36667969 17.98171875 -8.54585938 17.2134375 -8.73046875 16.421875 C-9.18950035 12.29724327 -8.66520615 9.88459761 -6.15234375 6.54296875 C-5.42144531 5.76566406 -4.69054687 4.98835938 -3.9375 4.1875 C-3.20402344 3.39730469 -2.47054688 2.60710937 -1.71484375 1.79296875 C-1.14894531 1.20128906 -0.58304687 0.60960937 0 0 Z " fill="#49331B" transform="translate(388,356)"/>
<path d="M0 0 C1.19600728 1.16183564 2.38683935 2.32947991 3.55078125 3.5234375 C4.9626229 4.96191767 6.41846482 6.35679244 7.875 7.75 C10.4490646 11.68680469 10.25008535 13.47143453 9.4921875 17.94921875 C9 20 9 20 8 23 C7.34 23 6.68 23 6 23 C2.92322305 15.41260829 1.07619941 8.11397712 0 0 Z " fill="#49331C" transform="translate(198,355)"/>
<path d="M0 0 C8.25 0 16.5 0 25 0 C22.56403123 2.43596877 21.06237049 3.71845274 18.125 5.25 C17.13886719 5.78367188 17.13886719 5.78367188 16.1328125 6.328125 C12.4991214 7.47280425 9.88263822 6.42798833 6.54296875 4.80859375 C5.76566406 4.35613281 4.98835938 3.90367187 4.1875 3.4375 C3.39730469 2.98246094 2.60710937 2.52742187 1.79296875 2.05859375 C1.20128906 1.70925781 0.60960937 1.35992187 0 1 C0 0.67 0 0.34 0 0 Z " fill="#4B351C" transform="translate(281,250)"/>
<path d="M0 0 C6.06431703 4.82670131 12.4875255 10.46257651 15 18 C13.58034858 17.57228451 12.1643776 17.13234457 10.75 16.6875 C9.96109375 16.44386719 9.1721875 16.20023437 8.359375 15.94921875 C5.73109943 14.89181649 4.01075304 14.01075304 2 12 C1.171875 9.08203125 1.171875 9.08203125 0.75 5.8125 C0.52570313 4.18248047 0.52570313 4.18248047 0.296875 2.51953125 C0.19890625 1.68808594 0.1009375 0.85664063 0 0 Z " fill="#4B361D" transform="translate(360,276)"/>
<path d="M0 0 C1.12853929 3.8370336 1.22092913 6.8361241 0.34375 10.73828125 C-2.5641475 15.6326785 -8.8678742 17.15677172 -14 19 C-12.48291559 14.16713231 -9.71442208 10.9842646 -6.4375 7.25 C-5.67663086 6.36634766 -5.67663086 6.36634766 -4.90039062 5.46484375 C-1.33816964 1.33816964 -1.33816964 1.33816964 0 0 Z " fill="#4A341C" transform="translate(226,276)"/>
<path d="M0 0 C2.01391949 0.62335603 4.01132287 1.30028027 6 2 C7.0725 2.37125 8.145 2.7425 9.25 3.125 C12.67118852 5.45762853 13.0344363 7.05290487 13.87109375 10.96484375 C14.01198228 13.18917481 13.65001355 14.87915288 13 17 C11.3936298 15.2519799 9.78986703 13.50168356 8.1875 11.75 C7.73568359 11.25886719 7.28386719 10.76773437 6.81835938 10.26171875 C0 2.79636177 0 2.79636177 0 0 Z " fill="#4E391E" transform="translate(213,394)"/>
<path d="M0 0 C1.65 0.33 3.3 0.66 5 1 C5.33 3.31 5.66 5.62 6 8 C5.01 8.495 5.01 8.495 4 9 C3.53348793 11.12576782 3.53348793 11.12576782 3.375 13.5625 C3.30023438 14.38878906 3.22546875 15.21507812 3.1484375 16.06640625 C3.09945313 16.70449219 3.05046875 17.34257812 3 18 C1.68 18.33 0.36 18.66 -1 19 C-1.10349817 12.58311325 -0.74507544 6.37305598 0 0 Z " fill="#3E3E3E" transform="translate(416,486)"/>
<path d="M0 0 C0.66 0.33 1.32 0.66 2 1 C-2.28075369 6.5954014 -6.34403061 11.75802296 -12 16 C-11.65638149 7.95932679 -11.65638149 7.95932679 -9.375 4.625 C-6.31472372 2.53112676 -3.50738054 1.23407834 0 0 Z " fill="#4B351D" transform="translate(373,394)"/>
<path d="M0 0 C2.97 0 5.94 0 9 0 C9 0.66 9 1.32 9 2 C8.26136719 2.14695312 7.52273438 2.29390625 6.76171875 2.4453125 C-6.43094009 5.36211382 -16.98137408 12.10772847 -27 21 C-27.66 20.67 -28.32 20.34 -29 20 C-20.39248724 10.75923698 -11.77988425 5.50465963 0 1 C0 0.67 0 0.34 0 0 Z " fill="#4F391E" transform="translate(283,288)"/>
<path d="M0 0 C4.24659508 1.67504584 7.16728352 3.04293122 9.25 7.3125 C9 10.125 9 10.125 8.25 12.3125 C6.25 9.3125 6.25 9.3125 5.25 6.3125 C1.11141789 3.05179894 -2.63727787 2.64776047 -7.75 2.3125 C-8.74 2.8075 -8.74 2.8075 -9.75 3.3125 C-10.08 2.3225 -10.41 1.3325 -10.75 0.3125 C-11.41 1.6325 -12.07 2.9525 -12.75 4.3125 C-13.41 3.9825 -14.07 3.6525 -14.75 3.3125 C-15.375 1.25 -15.375 1.25 -15.75 -0.6875 C-10.66551771 -3.22974114 -5.11540981 -1.69828867 0 0 Z " fill="#DBD163" transform="translate(169.75,319.6875)"/>
<path d="M0 0 C0.825 0.45375 1.65 0.9075 2.5 1.375 C3.593125 1.91125 4.68625 2.4475 5.8125 3 C6.699375 3.45375 7.58625 3.9075 8.5 4.375 C8.5 4.705 8.5 5.035 8.5 5.375 C1.57 5.375 -5.36 5.375 -12.5 5.375 C-4 -1 -4 -1 0 0 Z " fill="#452F1A" transform="translate(295.5,431.625)"/>
<path d="M0 0 C2 1 2 1 2.8515625 3.29296875 C5.41470311 12.88532831 5.41470311 12.88532831 5 18 C-0.66072943 13.78456319 -0.66072943 13.78456319 -2 10.6875 C-2 6.87786382 -1.05463248 3.66019508 0 0 Z " fill="#503B1F" transform="translate(384,314)"/>
<path d="M0 0 C0.66 0.33 1.32 0.66 2 1 C-2.1797416 6.003916 -6.60747064 10.73901426 -11.1875 15.375 C-11.69829102 15.89868164 -12.20908203 16.42236328 -12.73535156 16.96191406 C-15.30365633 19.53692897 -17.59257598 21.65004203 -21 23 C-19.48623919 19.43235715 -17.39486871 17.16293713 -14.6484375 14.453125 C-13.79765625 13.60878906 -12.946875 12.76445312 -12.0703125 11.89453125 C-11.18085938 11.02183594 -10.29140625 10.14914063 -9.375 9.25 C-8.4778125 8.36183594 -7.580625 7.47367188 -6.65625 6.55859375 C-4.44192996 4.36783031 -2.22307565 2.18187237 0 0 Z " fill="#FBF69C" transform="translate(177,209)"/>
<path d="M0 0 C2.87079934 2.87079934 2.82689167 5.49885657 3.17578125 9.4453125 C2.88703997 13.64168573 1.05514496 15.23582122 -2 18 C-2.33 18 -2.66 18 -3 18 C-3.36517527 11.42684522 -2.13619737 6.20514474 0 0 Z " fill="#4D381E" transform="translate(202,314)"/>
<path d="M0 0 C5.46737191 1.74807129 10.75824848 3.65794081 16 6 C15.01 6.495 15.01 6.495 14 7 C14 7.66 14 8.32 14 9 C7.4 9 0.8 9 -6 9 C-6 8.67 -6 8.34 -6 8 C-1.05 7.67 3.9 7.34 9 7 C6.03 5.35 3.06 3.7 0 2 C0 1.34 0 0.68 0 0 Z " fill="#CDC25C" transform="translate(261,413)"/>
<path d="M0 0 C3 1 3 1 5 4 C5.4140625 6.26171875 5.4140625 6.26171875 5.625 8.6875 C5.69976562 9.49574219 5.77453125 10.30398438 5.8515625 11.13671875 C5.92503906 12.05904297 5.92503906 12.05904297 6 13 C4.68 13.33 3.36 13.66 2 14 C-0.28062828 10.57905758 -0.21925007 9.31812778 -0.125 5.3125 C-0.10695312 4.31863281 -0.08890625 3.32476562 -0.0703125 2.30078125 C-0.04710937 1.54152344 -0.02390625 0.78226562 0 0 Z " fill="#EFE76D" transform="translate(178,327)"/>
<path d="M0 0 C-0.99 1.485 -0.99 1.485 -2 3 C-4.64 2.34 -7.28 1.68 -10 1 C-10 1.66 -10 2.32 -10 3 C-12.31 3 -14.62 3 -17 3 C-16.67 2.01 -16.34 1.02 -16 0 C-16.66 -0.33 -17.32 -0.66 -18 -1 C-11.84770057 -3.05076648 -5.90034341 -2.36013736 0 0 Z " fill="#CABE5A" transform="translate(438,320)"/>
<path d="M0 0 C0.33 0 0.66 0 1 0 C1.70147833 3.41395062 2.38372236 6.83146969 3.0625 10.25 C3.26166016 11.21808594 3.46082031 12.18617188 3.66601562 13.18359375 C3.84970703 14.11816406 4.03339844 15.05273438 4.22265625 16.015625 C4.39547119 16.87446289 4.56828613 17.73330078 4.74633789 18.61816406 C5.00554788 21.05209351 4.75084609 22.68898463 4 25 C-0.17179479 21.72216124 -0.04736897 17.35819271 -0.7265625 12.38671875 C-1.0764721 8.05283845 -0.72507711 4.27795496 0 0 Z " fill="#E1D866" transform="translate(367,314)"/>
<path d="M0 0 C2.20438611 3.30657917 2.20929493 3.77729375 1.75 7.5 C1.64300781 8.37398438 1.53601563 9.24796875 1.42578125 10.1484375 C0.7330158 14.78805935 -0.09859581 19.39671257 -1 24 C-1.99 24 -2.98 24 -4 24 C-3.35588614 18.44686304 -2.49942196 12.98744364 -1.4375 7.5 C-1.22963867 6.40945313 -1.22963867 6.40945313 -1.01757812 5.296875 C-0.68063335 3.53081963 -0.34064317 1.76534574 0 0 Z " fill="#E3D966" transform="translate(219,317)"/>
<path d="M0 0 C2.34306177 1.17153088 4.61243223 2.35947109 6.875 3.6875 C10.47185591 5.19817948 12.28345529 4.97338076 16 4 C16 4.66 16 5.32 16 6 C16.639375 6.12375 17.27875 6.2475 17.9375 6.375 C18.9584375 6.684375 18.9584375 6.684375 20 7 C20.33 7.66 20.66 8.32 21 9 C14.05007306 9.51269953 8.83135703 9.02673384 3 5 C1.27734375 3.48828125 1.27734375 3.48828125 0 2 C0 1.34 0 0.68 0 0 Z " fill="#CABE5A" transform="translate(411,357)"/>
<path d="M0 0 C2.31 0 4.62 0 7 0 C7.33 1.65 7.66 3.3 8 5 C4.77208445 7.1519437 3.71599191 7.20086443 0 7 C0 4.69 0 2.38 0 0 Z " fill="#49331B" transform="translate(303,466)"/>
<path d="M0 0 C2.1875 2.75 2.1875 2.75 2.1875 5.75 C0.2075 6.08 -1.7725 6.41 -3.8125 6.75 C-4.1425 5.1 -4.4725 3.45 -4.8125 1.75 C-6.1325 2.08 -7.4525 2.41 -8.8125 2.75 C-8.4825 1.43 -8.1525 0.11 -7.8125 -1.25 C-4.03299279 -2.65381696 -3.24433632 -2.59546905 0 0 Z " fill="#442E19" transform="translate(156.8125,332.25)"/>
<path d="M0 0 C0.99 0 1.98 0 3 0 C3.33 4.62 3.66 9.24 4 14 C2.68 14 1.36 14 0 14 C0 9.38 0 4.76 0 0 Z " fill="#272727" transform="translate(430,491)"/>
<path d="M0 0 C-0.4452885 5.27315333 -1.08373163 10.01770224 -3 15 C-3.33 15 -3.66 15 -4 15 C-4 12.36 -4 9.72 -4 7 C-4.99 7 -5.98 7 -7 7 C-5.80061288 4.10148113 -3.63852862 0 0 0 Z " fill="#F0E76D" transform="translate(224,305)"/>
<path d="M0 0 C2.97 0.495 2.97 0.495 6 1 C6.33 1.99 6.66 2.98 7 4 C6.01 4 5.02 4 4 4 C4 5.32 4 6.64 4 8 C4.99 8.33 5.98 8.66 7 9 C6.34 9.66 5.68 10.32 5 11 C2.49962266 8.82575883 1.56371414 7.26954202 1 4 C0.34 4 -0.32 4 -1 4 C-0.67 2.68 -0.34 1.36 0 0 Z " fill="#68552B" transform="translate(416,331)"/>
<path d="M0 0 C2.97 0 5.94 0 9 0 C9 0.66 9 1.32 9 2 C7.82244141 2.27263672 7.82244141 2.27263672 6.62109375 2.55078125 C0.80574429 3.94218388 -4.60004859 5.42275046 -10 8 C-10.66 7.34 -11.32 6.68 -12 6 C-8.04 4.35 -4.08 2.7 0 1 C0 0.67 0 0.34 0 0 Z " fill="#634F28" transform="translate(283,288)"/>
<path d="M0 0 C1.94057779 1.94057779 2.89263752 3.45591809 4.125 5.875 C4.47820312 6.55304688 4.83140625 7.23109375 5.1953125 7.9296875 C6 10 6 10 6 14 C0.05140187 8.36448598 0.05140187 8.36448598 -1 5 C-0.625 2.25 -0.625 2.25 0 0 Z " fill="#D7CC61" transform="translate(139,345)"/>
<path d="M0 0 C0 3 0 3 -0.9375 5.1875 C-3.88766809 7.78007196 -6.3336026 7.31046113 -10.13671875 7.140625 C-10.75160156 7.09421875 -11.36648437 7.0478125 -12 7 C-10.53092999 4.06185997 -8.40552194 3.6713774 -5.4375 2.375 C-4.42558594 1.92898438 -3.41367188 1.48296875 -2.37109375 1.0234375 C-1.58863281 0.68570312 -0.80617188 0.34796875 0 0 Z " fill="#523D20" transform="translate(257,256)"/>
<path d="M0 0 C4.75481646 0.57634139 7.97048212 2.55068521 12 5 C12 5.33 12 5.66 12 6 C6.71502591 6.52849741 6.71502591 6.52849741 4 6 C1.5 3 1.5 3 0 0 Z " fill="#4D381E" transform="translate(330,257)"/>
<path d="M0 0 C0.33 1.65 0.66 3.3 1 5 C1.9075 4.79375 2.815 4.5875 3.75 4.375 C7.21546863 3.97513823 8.09470856 4.34524705 11 6 C9.39884424 6.2493357 7.79379841 6.47378648 6.1875 6.6875 C5.29417969 6.81511719 4.40085938 6.94273437 3.48046875 7.07421875 C1 7 1 7 -0.63671875 5.64453125 C-1.08660156 5.10183594 -1.53648437 4.55914062 -2 4 C-2.99 3.34 -3.98 2.68 -5 2 C-2 0 -2 0 0 0 Z " fill="#B7AA51" transform="translate(152,334)"/>
<path d="M0 0 C-1 2 -1 2 -3.3125 3.125 C-6 4 -6 4 -10 4 C-9.67 2.68 -9.34 1.36 -9 0 C-5.67465243 -1.10844919 -3.37817425 -0.84454356 0 0 Z " fill="#E2D866" transform="translate(430,323)"/>
<path d="M0 0 C0.99 0.33 1.98 0.66 3 1 C-0.67392231 4.12963752 -3.47282927 5.18294334 -8.3203125 4.83203125 C-10.55339451 4.59052238 -12.77618921 4.31491874 -15 4 C-15 3.67 -15 3.34 -15 3 C-14.08476562 2.86722656 -13.16953125 2.73445313 -12.2265625 2.59765625 C-11.03804687 2.42105469 -9.84953125 2.24445313 -8.625 2.0625 C-7.44164062 1.88847656 -6.25828125 1.71445312 -5.0390625 1.53515625 C-2.09297619 1.16537214 -2.09297619 1.16537214 0 0 Z " fill="#D1C65E" transform="translate(172,360)"/>
<path d="M0 0 C0.99 0.495 0.99 0.495 2 1 C2 1.66 2 2.32 2 3 C2.66 3 3.32 3 4 3 C4 4.65 4 6.3 4 8 C2.68 8.33 1.36 8.66 0 9 C0 6.03 0 3.06 0 0 Z " fill="#626262" transform="translate(415,496)"/>
<path d="M0 0 C0.81210938 0.29003906 1.62421875 0.58007812 2.4609375 0.87890625 C3.27820313 1.16636719 4.09546875 1.45382812 4.9375 1.75 C5.56398438 1.97816406 6.19046875 2.20632813 6.8359375 2.44140625 C6.8359375 3.43140625 6.8359375 4.42140625 6.8359375 5.44140625 C5.37526551 4.99058156 3.91745718 4.53047088 2.4609375 4.06640625 C1.64882812 3.81117188 0.83671875 3.5559375 0 3.29296875 C-2.1640625 2.44140625 -2.1640625 2.44140625 -4.1640625 0.44140625 C-2.1640625 -0.55859375 -2.1640625 -0.55859375 0 0 Z " fill="#DDD364" transform="translate(254.1640625,409.55859375)"/>
<path d="M0 0 C2.23465229 3.35197843 2.27108649 4.57791246 2.25 8.5 C2.25515625 9.4590625 2.2603125 10.418125 2.265625 11.40625 C2 14 2 14 0 17 C-1.30312626 12.36666218 -0.67048058 8.69336403 0 4 C0 2.68 0 1.36 0 0 Z " fill="#D6CB60" transform="translate(183,333)"/>
<path d="M0 0 C5.37305699 -0.44041451 5.37305699 -0.44041451 8 0 C10 2.5 10 2.5 11 5 C6.87248551 4.39301257 3.6678852 2.96189209 0 1 C0 0.67 0 0.34 0 0 Z " fill="#594423" transform="translate(246,425)"/>
<path d="M0 0 C2.26185454 2.26185454 3.03921617 3.96983561 4 7 C3.67 7.99 3.34 8.98 3 10 C2.67 9.67 2.34 9.34 2 9 C1.34 9.66 0.68 10.32 0 11 C-0.84098656 6.98195309 -1.05404945 3.98196457 0 0 Z " fill="#6A6A6A" transform="translate(421,490)"/>
<path d="M0 0 C1.134375 0.020625 2.26875 0.04125 3.4375 0.0625 C-3.15340909 5.0625 -3.15340909 5.0625 -6.5625 5.0625 C-4.14811644 0.07277397 -4.14811644 0.07277397 0 0 Z " fill="#554021" transform="translate(337.5625,424.9375)"/>
<path d="M0 0 C0 3.63053243 -1.2278255 4.95750337 -3.5546875 7.63671875 C-5.49136818 9.46347972 -7.46012234 10.27432067 -10 11 C-8.55218207 7.55571735 -6.72305391 5.63869038 -3.875 3.25 C-3.15054687 2.63640625 -2.42609375 2.0228125 -1.6796875 1.390625 C-0.84824219 0.70226562 -0.84824219 0.70226562 0 0 Z " fill="#452F1A" transform="translate(262,302)"/>
<path d="M0 0 C0.33 0.99 0.66 1.98 1 3 C-3.5 6 -3.5 6 -8 9 C-6.29220059 5.01513471 -3.92814393 1.96407197 0 0 Z " fill="#DED364" transform="translate(343,410)"/>
<path d="M0 0 C0 0.33 0 0.66 0 1 C-0.78375 1.0825 -1.5675 1.165 -2.375 1.25 C-5.14749104 1.72806339 -5.14749104 1.72806339 -6.3125 4.0625 C-6.6528125 5.0215625 -6.6528125 5.0215625 -7 6 C-7.66 5.67 -8.32 5.34 -9 5 C-9.625 2.9375 -9.625 2.9375 -10 1 C-6.78548731 -0.60725635 -3.56387464 -0.05748185 0 0 Z " fill="#A89A4A" transform="translate(164,318)"/>
<path d="M0 0 C0 0.66 0 1.32 0 2 C-3.1635377 4.169283 -6.4124787 5.66749209 -10 7 C-4.65789474 0 -4.65789474 0 0 0 Z " fill="#DCD263" transform="translate(221,311)"/>
<path d="M0 0 C0.99 0.33 1.98 0.66 3 1 C1.18776037 2.81223963 -0.67527395 4.46412225 -2.625 6.125 C-3.25664062 6.66382813 -3.88828125 7.20265625 -4.5390625 7.7578125 C-5.02117187 8.16773438 -5.50328125 8.57765625 -6 9 C-6.66 8.67 -7.32 8.34 -8 8 C-5.36 5.36 -2.72 2.72 0 0 Z " fill="#584323" transform="translate(262,300)"/>
<path d="M0 0 C2.66735273 2.48952921 4.55746343 4.63408134 6 8 C5.01 8 4.02 8 3 8 C0.89229241 5.11165997 0 3.61537605 0 0 Z " fill="#E3DA67" transform="translate(406,349)"/>
<path d="M0 0 C-3.28463659 2.18975773 -6.20696275 2.99806563 -10 4 C-10.33 3.01 -10.66 2.02 -11 1 C-7.32589215 -0.17571451 -3.83070817 -0.07366746 0 0 Z " fill="#D1C65E" transform="translate(285,289)"/>
<path d="M0 0 C3.65316671 1.24976756 4.78065836 1.67098753 7 5 C3.31245243 4.50168276 1.39509338 3.89932357 -1 1 C-0.67 0.67 -0.34 0.34 0 0 Z " fill="#523D20" transform="translate(265,391)"/>
<path d="M0 0 C1.1875 1.6875 1.1875 1.6875 2 4 C0.625 6.75 0.625 6.75 -1 9 C-1.66 8.67 -2.32 8.34 -3 8 C-2.690625 7.236875 -2.38125 6.47375 -2.0625 5.6875 C-1.32106407 3.81210323 -0.63771783 1.91315348 0 0 Z " fill="#DBD062" transform="translate(448,348)"/>
<path d="M0 0 C1.32 0.66 2.64 1.32 4 2 C2.03533587 3.06775224 0.03144641 4.06553465 -2 5 C-2.66 4.67 -3.32 4.34 -4 4 C-2.68 2.68 -1.36 1.36 0 0 Z " fill="#69562B" transform="translate(175,410)"/>
<path d="M0 0 C0.99 0.33 1.98 0.66 3 1 C2.67 3.31 2.34 5.62 2 8 C1.01 8 0.02 8 -1 8 C-0.67 5.36 -0.34 2.72 0 0 Z " fill="#D5CA60" transform="translate(216,333)"/>
<path d="M0 0 C0.33 0.66 0.66 1.32 1 2 C1.99 1.67 2.98 1.34 4 1 C4.33 2.65 4.66 4.3 5 6 C2.69 5.01 0.38 4.02 -2 3 C-1.34 2.67 -0.68 2.34 0 2 C0 1.34 0 0.68 0 0 Z " fill="#CCC15C" transform="translate(414,333)"/>
<path d="M0 0 C0.33 0 0.66 0 1 0 C1.33 2.97 1.66 5.94 2 9 C1.01 8.67 0.02 8.34 -1 8 C-1.625 5.125 -1.625 5.125 -2 2 C-1.34 1.34 -0.68 0.68 0 0 Z " fill="#C8BC59" transform="translate(370,330)"/>
<path d="M0 0 C0.721875 0.845625 1.44375 1.69125 2.1875 2.5625 C1.1975 2.8925 0.2075 3.2225 -0.8125 3.5625 C-1.225 3.10875 -1.6375 2.655 -2.0625 2.1875 C-3.87658095 0.50299626 -5.56535627 -0.43015971 -7.8125 -1.4375 C-3.93054643 -2.87936847 -3.23937503 -2.80745836 0 0 Z " fill="#827037" transform="translate(156.8125,332.4375)"/>
<path d="M0 0 C2.97 0 5.94 0 9 0 C9 0.66 9 1.32 9 2 C6.69 2.33 4.38 2.66 2 3 C2 2.34 2 1.68 2 1 C1.34 0.67 0.68 0.34 0 0 Z " fill="#988942" transform="translate(283,288)"/>
<path d="M0 0 C0.99 0.33 1.98 0.66 3 1 C3 2.32 3 3.64 3 5 C1.68 5 0.36 5 -1 5 C-0.67 3.35 -0.34 1.7 0 0 Z " fill="#656565" transform="translate(431,500)"/>
<path d="M0 0 C0.33 0 0.66 0 1 0 C1.33 2.97 1.66 5.94 2 9 C1.34 9 0.68 9 0 9 C-1.125 3.375 -1.125 3.375 0 0 Z " fill="#0E0E0E" transform="translate(417,490)"/>
<path d="M0 0 C2.31 0.66 4.62 1.32 7 2 C5.3125 3.125 5.3125 3.125 3 4 C0.25 3.125 0.25 3.125 -2 2 C-1.34 1.34 -0.68 0.68 0 0 Z " fill="#DACF62" transform="translate(314,268)"/>
</svg>
