<svg xmlns="http://www.w3.org/2000/svg" width="606" height="636"><path fill="#3d2616" d="m403 204 2.5 1.8A83 83 0 0 1 416 215l2.7 2.6 5.5 5.5c31.7 32.2 47.7 77.4 47.9 122C471.6 382 460 417.7 438 447l-1.7 2.4q-7.6 9.8-16.3 18.6l-1.8 2c-28 29.5-72.2 47.6-112.5 49.1-22 .5-43.5-.3-64.7-7.1l-2.3-.7a182 182 0 0 1-39.7-18q-8.9-5.7-17.2-12.1l-2.3-1.8-2.2-1.6-2-1.5-1.3-1.3v-2l-1.7-.7a31 31 0 0 1-7-5.8l-2.5-2.4C161 462 161 462 161 460h-2c-32.6-34-44.2-81.1-43.3-126.7.6-25.5 7.7-49.7 19.3-72.3l1-2h2l.3-1.7c2-7 7.3-13.3 11.8-19l5-6.5q6-7.4 12.6-13.8l2.4-2.4c6-5.8 12-11 18.9-15.6l3.2-2.2c2.8-1.8 2.8-1.8 4.8-1.8v-2l2.6-1.3 14.4-7.3c12.9-6.7 26-11 40-14l5.8-1.4c5.2-1.4 10.6-1.7 16-2.1l3-.3A180 180 0 0 1 403 204"/><path fill="#3d2616" d="M339.6 281c8 4.6 12.8 9.7 18.4 17l1.6 1.9c6.4 8 6.9 18.8 8.3 28.6q1.2 9 3.6 17.7c1.1 6.6-1.3 13.4-2.9 19.8l-.6 2.6a51 51 0 0 1-12.4 24.1l-1.3 1.5c-1.3 1.7-1.3 1.7-2.3 3.5a26 26 0 0 1-12.8 10.1l-2.6 1.3c-39.3 18.7-39.3 18.7-57.7 12.2-37-14-37-14-45.5-26l-2.1-3-1.1-1.6-2.7-3.6a55 55 0 0 1-8.4-19.9l-1-3.3c-3.4-12.5-1.1-24.2 1.4-36.7l2-10.2.6-3.6a53 53 0 0 1 20.5-29.9q4.8-2.5 10-4.5 4-1.7 7.7-4c28.8-15.5 52.1-8.2 79.3 6"/><path fill="#ece36b" d="M357 267.5c18.4 15.6 33.3 37 36 61.5 1.6 27-2.3 52.4-19.4 74q-3.2 3.6-6.6 7l-2.5 2.6-2.5 2.4-1.7 1.8c-18.8 18-44.7 24.8-70 24.7-28.5-.7-51.4-12.7-71.4-32.6-5.7-6-9.9-12.7-13.9-19.9l-1.4-2.5a99 99 0 0 1-5.6-72.1 102 102 0 0 1 48-57.4c35.5-18 79.6-14.3 111 10.5m-131.6 35.7c-3.8 7.4-4.8 15.8-6 24l-1.3 7.9a64 64 0 0 0 1 31.8l.9 3.4c2 7.3 4.5 12.7 9 18.7l2.2 3.4c5.6 8 11.4 12.5 20.3 16.5q4.4 2 8.6 4.3c15.8 8 30.8 13.7 48.3 8a281 281 0 0 0 19.6-8l2.8-1.2a50 50 0 0 0 26.2-21q1.8-2.3 3.8-4.3c4.4-5.7 6-12.3 7.7-19.1l1-3.9a45 45 0 0 0-.5-27.7l-1.4-9.6c-2-14-4.8-23.7-14.6-34.4l-1.3-1.7c-4-5.2-8.5-7.6-14.4-10.2l-8.6-3.9-7-3.6c-32.2-17.7-78 1-96.3 30.6"/><path fill="#f7ef78" d="m403 204 2.5 1.8A83 83 0 0 1 416 215l2.7 2.6 5.5 5.5c31.7 32.2 47.7 77.4 47.9 122C471.6 382 460 417.7 438 447l-1.7 2.4q-7.6 9.8-16.3 18.6l-1.8 2c-28 29.5-72.2 47.6-112.5 49.1-22 .5-43.5-.3-64.7-7.1l-2.3-.7a182 182 0 0 1-39.7-18q-8.9-5.7-17.2-12.1l-2.3-1.8-2.2-1.6-2-1.5-1.3-1.3v-2l-1.7-.7a31 31 0 0 1-7-5.8l-2.5-2.4C161 462 161 462 161 460h-2c-32.6-34-44.2-81.1-43.3-126.7.6-25.5 7.7-49.7 19.3-72.3l1-2h2l.3-1.7c2-7 7.3-13.3 11.8-19l5-6.5q6-7.4 12.6-13.8l2.4-2.4c6-5.8 12-11 18.9-15.6l3.2-2.2c2.8-1.8 2.8-1.8 4.8-1.8v-2l2.6-1.3 14.4-7.3c12.9-6.7 26-11 40-14l5.8-1.4c5.2-1.4 10.6-1.7 16-2.1l3-.3A180 180 0 0 1 403 204m-230 22-2.4 2.2c-10 9.6-17.7 20.8-24.6 32.8l-2 3.4a142 142 0 0 0-19.2 68v2.3c-.2 16.8-.2 33 4.2 49.3l.6 2.2A167 167 0 0 0 165 452l2.1 2.5A163 163 0 0 0 200 483l3 2a171 171 0 0 0 123.5 22.8q12-2.7 23.5-6.8l2-.8c22.9-8.6 42-21 60-37.2l2.3-2a168 168 0 0 0 39.7-64l1.1-3a130 130 0 0 0 3.5-12.2c6-25 6.6-55-.6-79.8l-.7-2.6A167 167 0 0 0 443 265l-1.7-3.1a169 169 0 0 0-29.7-38.3A168 168 0 0 0 302 176l-2.4-.1C251 174.1 208 192.9 173 226"/><path fill="#f4eb6f" d="M322.9 293.3c2.6 1.2 4 1.7 7 1.8 3-1.6 3.8-4 5.1-7.1h4l.4 9 .2 2.5q.2 6 1 11.8.5 4.5.5 9.2v2.6l-.1 1.9h-3l-1-2.7c-4.5-11.4-10-20.4-21.7-25.5-2.9-1-5.3-1.6-8.3-1.8l-2.4-.2a37 37 0 0 0-25.8 8.3c-11.9 12.2-14.2 29.6-14.2 46a51 51 0 0 0 12.7 34.7c3.5 3.3 7.2 5.4 11.7 7.2l2.7 1a40 40 0 0 0 13.8 1.3c9.7-.2 17.4-2.4 24.5-9.3q5.2-6 10-12l3 1a45 45 0 0 1-21.1 23.6c-9.2 3.9-17 4.7-27 4.8h-4.5c-13.6.4-25.7-1.3-36.4-10.5a57 57 0 0 1-19.2-40c-.3-18.5 3.6-34 16.8-47.7 8.3-7.8 18.7-14 30.3-14.3l3.1.1c-2.9 2-5.4 3-8.6 4.2-14.7 6-24 16.2-30.7 30.5A67 67 0 0 0 248 373a47 47 0 0 0 24 23.8l5 1.2-2.4-1.3a54 54 0 0 1-27.1-33.6 74 74 0 0 1-1.7-17v-2.3c0-14.3 5.9-28.6 15.4-39.2a54 54 0 0 1 61.7-11.4"/><path fill="#f4ec6f" d="M178 390h3c1.4 1.6 1.4 1.6 2.8 3.8l1.3 2c.9 2.2.9 2.2.8 4.2-1.2 2.6-2.7 4-4.7 6l-2 2-2.2 2-4 4 3.4-1.7 8.8-4.6 2-1c1.8-.7 1.8-.7 4.8-.7 1.6 2 1.6 2 3.2 4.5l1.6 2.5 1.2 2c-1.6 3.9-4.1 6.3-7.1 9.3q-1.4 1.2-2.8 2.7l-2.1 2 3-1.3 3.8-1.8 1.9-.9c2.6-1.1 4.7-2 7.6-2a11 11 0 0 1 4.4 4.6q.8.9 1.3 1.9l1 1.5c-1.6 3.1-4.6 3.5-7.7 4.6l-2 .7-15 5.3-2 .7q-5 1.7-10.3 2.7l-6-9c1.8-3.6 3.1-5.3 6-8l2-2.1 2-1.9 3-3-3.1 1.6-4.2 2-2 1c-5.2 2.5-5.2 2.5-7.8 2-2.4-.8-3.3-1.9-4.7-4l-1.3-1.7c-.9-1.9-.9-1.9-.8-3.8 3.4-8 11.4-14.9 17.3-21.1q3-3.3 5.6-7"/><path fill="#f4eb6f" d="M421.3 391c5.2 3 9.6 7.2 11.7 13 1.2 10-4.1 18.7-9.2 26.9-2 2.4-2.7 2.8-5.8 3.1-2.3-1-2.3-1-4.7-2.6l-2.7-1.7-2.9-1.8-2.7-1.8-16-10.1a47 47 0 0 1 7.5-15c5.6-8.7 14.3-14.4 24.8-10"/><path fill="#f3eb6f" d="M245.7 448c6.1 2.7 10.3 6 13.3 12 .7 7.2 1 13.4-3.5 19.4a20 20 0 0 1-13 6.8c-6.4.2-11.3-.3-16.5-4.2-4.9-4.7-7.1-8.3-7.3-15.2 0-6.6 1.4-11 6.2-15.6 6.5-5 13-6 20.8-3.3"/><path fill="#f4ec6f" d="M413.2 252q8.7 4.8 12.8 14c1 7.1.3 12.3-4 18-4.5 4.6-8.9 7-15.3 7.4-6.7-.1-11-3.6-15.5-8.2-4-5.8-6-10.9-4.9-18a22 22 0 0 1 10.4-12.7c5.4-2.3 11-2.8 16.5-.6M298.8 192.8c5 2.3 8.8 4.9 11.4 9.9q3 9-.9 17.7A22 22 0 0 1 298 230c-3.5.3-3.5.3-7.4.4h-3.9c-5.4-.6-9.1-3.2-12.5-7.5-4-5.3-3.7-10.5-3.2-16.9 2-6 6.5-10 11.9-13.1 5-2.1 10.7-1.6 15.9 0M319 460c2 1.7 2.9 2.5 3.4 5 0 4.9-.3 8-3.4 12l1.8 2c3.1 4.3 5.2 8.7 5.2 14l-11 1-1.2-2.4-1.6-3-1.5-3.1c-1.5-2.6-1.5-2.6-3.9-3.3l-1.8-.2q0 1.5.3 2.8l.3 3.6.3 3.7.1 2.9c-1 1-1 1-3.5 1.1h-6.1l-2.4-.1-1.7-16c-.8-7-1.5-14-1.3-21 20.5-4 20.5-4 28 1"/><path fill="#422b18" d="m161 321 6.4.4c3.6.8 5.8 2.2 8.6 4.6 1.4 3.4 1.4 3.4 2.2 7.2.8 3.7.8 3.7 1.8 6.8l3 1c-.4 7.8-2.8 13-8.5 18.4-6.5 4.2-12.9 4.5-20.5 3.6-5.9-2-9-5.9-12-11.1a29 29 0 0 1-2-15.9c1.5-3.7 1.5-3.7 3-6h2l.7 2.8c1.5 3.8 2.8 4.4 6.3 6.2a10 10 0 0 1 3 3l-.6 1.9-.4 2.1 2 2c3 4.5 2.3 8.8 2 14h2l.6-1.7c2-3.3 4.3-5 7.4-7.3h3l3-8-3-.4-3-.6-1-2a25 25 0 0 0-14-3l-1-5-4 1 1-4 3.3-.8c3.4-1.1 4.5-1.6 6.7-4.2h2v-5"/><path fill="#412b18" d="M428 321c11.2 1.7 11.2 1.7 15 6a59 59 0 0 1 3 14h3a20 20 0 0 1-4 15c-5.8 5.4-10 7.1-18 7v-4h3v-2l3.3-2.2c4-2.7 5.2-5.2 6.7-9.8l-2.1-.2c-3.6-1-5.9-2.8-8.9-4.8-3.2-1.2-3.2-1.2-6-2-2.2 4.3-2 7.3-1 12l3 1v12c-6.2-.6-10-2.9-14.2-7.4-3.2-4.7-4-8.5-4.1-14.1v-3.3c.3-3.5 1.3-5.4 3.3-8.2 2 3 2 3 2 6l6 2-1-3h-2l1-4 2.2-.2c3.4-1 5.2-2.6 7.8-4.8h2l1-2-1-1z"/><path fill="#f4eb6f" d="M227.9 206.1c3.2 1.4 4 3.5 5.7 6.5l1 1.7 5.2 9c5.5 9.8 5.5 9.8 6.2 14.7l-8 5c-3.2-3.2-4.8-6-7-10-4 .6-6.7 1.8-10 4l1.1 2 1.5 2.7q.7 1.4 1.4 2.7c1 2.6 1 2.6 1 4.8-1.3 2.4-2.6 3-5 4l-2.3 1-1.7.8q-6.8-11-13.5-22.1l-1.3-2.2-1.3-2.1-1.1-2c-.8-1.6-.8-1.6-.8-4.6 6.2-4 6.2-4 9.2-4.2 3 2 4.2 5 5.8 8.2v2l1.9-1 2.5-1.5 2.4-1.4c2.2-1.1 2.2-1.1 4.2-1.1l-1.3-2-1.7-2.8-1.7-2.7C219 213 219 213 219 210c6.4-4 6.4-4 8.9-3.9"/><path fill="#e4da67" d="M442 322.6c5.3 4.3 8.5 8.2 9.5 15 .2 8.4-.3 14.8-6 21.1a27 27 0 0 1-18.5 7.7c-7.2-.2-12-3-16.8-8.1a27 27 0 0 1-6.6-19c1.2-7 5-12.8 10.5-17.1 9.8-6.2 18-5 28 .4m-14-1.6v2l1 1c-1 2-1 2-3.4 3-2.6.8-2.6.8-4.1 2.6-2 1.9-3.8 2-6.5 2.4v3l3 1v2l-6-2-1-6c-2.7 2.6-4 4-4.2 7.8-.2 7-.2 12.5 4.2 18.2 2.8 3 6 5.7 10 7l4-1v-11l-3-1c-1-4.8-1-7.5 1-12l7.4 2.8c2.6 1.2 2.6 1.2 4.7 2.8 2 1.7 2 1.7 4.9 1.4-2.1 6.3-4.5 8.4-10 12v2h-3v4a20 20 0 0 0 15-4c5.4-5.8 7.1-10 7-18h-3l-.3-2.4c-.8-6.9-.8-6.9-4.1-12.7-3.4-2.5-5.6-4.1-9.8-4.5z"/><path fill="#e2d866" d="M172.3 320.5A27 27 0 0 1 185 336c1 7.3.1 13.8-4 20-5 5.6-10.5 9.2-18 10.3q-10 .4-17.7-6c-6-5.7-7.5-9.6-7.8-17.7.2-8.1 1.6-12.7 7.3-18.4 9.4-6.5 16.5-8 27.5-3.7m-11.3.5v5l-1.8.9c-2.4 1.1-2.4 1.1-5.2 3.1l-6 2v3l4-1 1 5 2 .1 2.8.3 2.6.2c3.4.5 5.7 1.5 8.1 4 1.7 1.9 1.7 1.9 5.5 1.4l-1.5 2.9c-1.6 2.8-1.6 2.8-1.5 5.1l-1.8.3c-2.5.8-4 1.9-6 3.6l-1.8 1.6c-1.6 1.4-1.6 1.4-1.4 3.5h-2l.1-2.2c.3-6.2.2-9.1-4.1-13.8.3-2.8.3-2.8 1-5a23 23 0 0 0-8-5c-1.2-3-1.2-3-2-6-3.2.7-3.2.7-4.2 3.2-1.8 6-1.8 12.4.9 18.2Q146 359 154 363c6.7 1 13.4.8 19.4-2.7 5.1-4 8-9 9.6-15.3v-4l-3-1q-1.6-5.2-2.6-10.6c-1.7-4.2-3.4-5.4-7.4-7.4-2.5-.7-2.5-.7-4.9-.7l-2.3-.2z"/><path fill="#eee56c" d="M285 289c-2.9 2-5.4 3-8.6 4.2-14.7 6-24 16.2-30.7 30.5A67 67 0 0 0 248 373a48 48 0 0 0 26.7 24.8c3.2 1 6 1.5 9.3 1.2v2c-10 .9-19.8-2.3-28-8.3a58 58 0 0 1-21-37.7c-1.2-18.6 1.8-34.8 14.3-49.4 9.5-9.9 21.6-17.2 35.7-16.6"/><path fill="#f3ea6e" d="M169 253c3.4 1.4 5 3 7 6 0 2 0 2-2.4 4.4L171 266c-2.5 3.8-2.5 5.6-2 10 1.8 3.2 1.8 3.2 5 5 3.3.5 6 .2 9-1 3-2.9 4.7-6 6-10q4.6 1.1 9 3c-1 6.8-5 12.4-10 17a20 20 0 0 1-16 4 22 22 0 0 1-13.7-12.4 20 20 0 0 1 1.3-17.3A58 58 0 0 1 169 253"/><path fill="#f4ec6f" d="M367.3 210.7q7.2 3.3 12.7 9.3c1 2.9 1 2.9 1 5l-7 4-1.5-1.5a25 25 0 0 0-10.2-6.7c-4 .2-5.5 1.3-8.3 4.2-1.5 2.9-1.4 4.8-1 8 3 4.6 5.8 6.8 11 9-1.9 5.8-1.9 5.8-3 8-7.1-.4-11.7-4.5-16.4-9.6A23 23 0 0 1 341 223c2-5.6 5.8-9.1 10.8-12 4.8-2 10.6-1.8 15.4-.3"/><path fill="#f4eb6f" d="M356 441.2c2.6 1 3.1 2 4.5 4.4l1.3 2.3 1.3 2.3 1.4 2.4q3.1 5.4 5.5 11.4l2.2-1.6 3-2 3-2c2.8-1.4 2.8-1.4 5.5-1.3 3.2 1.2 4 3 5.3 5.9v2c-1.9 1.4-1.9 1.4-4.5 3l-2.8 1.8-3 1.8-3 1.9c-7.3 4.5-7.3 4.5-10.7 4.5-1.8-2.4-1.8-2.4-3.7-5.7l-1-1.8-5.6-9.5c-5.9-10-5.9-10-7.7-15l3.2-2.6 1.9-1.4c1.9-1 1.9-1 3.9-.8"/><path fill="#4b351d" d="M283 288h9v2l-2.2.4a52 52 0 0 0-33.6 21.8c-8.9 14.9-11.9 32-8.1 49a54 54 0 0 0 26 34.4q4.3 2 8.9 3.4c-5.4 2-10-.7-15-3a58 58 0 0 1-25.4-36c-1-4.8-1-9.5-1-14.4v-3a58 58 0 0 1 16.9-39.6 74 74 0 0 1 24.5-14z"/><path fill="#442e19" d="M380 329c5.6 5.5 5.6 5.5 7.8 8.4l1.3 1.7c1.4 2.9 1.4 4.7.9 7.9a56 56 0 0 1-5.4 7.9l-1.5 2c-2.8 3.7-2.8 3.7-4.1 5.1h-2l-1-3.6-.6-2c-1.2-6.7.2-12.4 2.1-18.8l.7-2.5z"/><path fill="#412b18" d="M206 330c2 1 2 1 3 3.8 3 10 4.5 18.2 1 28.2-12.2-11.5-12.2-11.5-13-18 .5-5.7 5.3-10 9-14"/><path fill="#422b18" d="M411 262c3 2 3 2 5 5 .2 3.5.2 3.5-1 7-3 3.3-5.3 4.8-9.6 6.1-3.4-.1-3.4-.1-6.3-2.2-2.1-2.9-2.1-2.9-2.7-5.9 1.4-7 7.8-11 14.6-10"/><path fill="#f2ea6e" d="M423 338c5 .4 8.1 2 12.2 4.8 1.9 1.4 1.9 1.4 4.8 2.2-.4 4.8-2.4 6.9-6 10-2.3 1.3-2.3 1.3-4 2v2h-3l-1 3h-2l.1-2.3c.5-6 .5-6-2.2-11L420 347c.2-3.4 1.4-6 3-9"/><path fill="#412b18" d="M288 201c4 0 6.3.4 9.4 3 2 3.9 2.3 6.8 1.6 11-2.1 4.6-2.1 4.6-5 6-2.9.3-2.9.3-6 0a17 17 0 0 1-5-6c-.4-5 0-8 3-12z"/><path fill="#3f2917" d="M239.6 456.4c5.4 1 5.4 1 7.4 3.6.7 4.4.5 8-1.4 12-1.6 2-1.6 2-3.6 4-7 .7-7 .7-10-1.4a20 20 0 0 1-1-11.6c1.9-4 4-5.8 8.6-6.6"/><path fill="#f2e96e" d="m155 340 4.3-.1 2.3-.1c2.6.2 4.2 1 6.4 2.2v2l6 1c-.9 4.1-1.6 7.1-5.3 9.5L166 356c-3.6 2.5-3.6 2.5-6 6h-2v-2.2c-.4-6-.8-9.2-5-13.8.2-2.4 1-3.8 2-6"/><path fill="#432d19" d="M224 294a35 35 0 0 1-12 23l-2 3h-2c-2.6-11.8-2.6-11.8-2-16 3-3.5 6-5.3 10.1-7.2l3.2-1.6c2.7-1.2 2.7-1.2 4.7-1.2"/><path fill="#48321b" d="m282.9 256 6.1 3c-4.5 3.6-7.6 5.3-13.4 5.2h-6.3l-3.3-.1-8-.1a36 36 0 0 1 6.4-9.5c5.5-5 12.7-1.2 18.5 1.6M319 252a29 29 0 0 1 10 10v2l-11 .3h-3.2c-6.5.1-10.5-.5-15.8-4.3 4.6-5.2 13-9.4 20-8"/><path fill="#4a4a4a" d="M416 486c2.3 0 2.3 0 5 1 1.4 2.6 2.1 5.1 3 8l4-9h5l1 19h-4l-1-9-3 9-4-1c-1.2-3-1.2-3-2-6l-2 7h-3q-.1-9.5 1-19"/><path fill="#402a17" d="m364 294 7.9 3.8 2.2 1 2.2 1.2 2 1c1.7 1 1.7 1 3.7 4-.2 2.6-.2 2.6-.7 5.4l-.6 3a27 27 0 0 1-2.7 6.6l-8-9-1.6-1.8c-3.8-4.7-4.3-9.2-4.4-15.2"/><path fill="#412a18" d="M414 401.6c3.1.6 4.9 2.2 7 4.4 1.5 3 1.2 5.7 1 9-1 3-1 3-2 5-4.1-.6-7.3-2.9-10.7-5l-1.9-1.2-4.4-2.8c.5-3 .9-4.8 2.6-7.3 2.8-2 5-2.3 8.4-2.1"/><path fill="#eee56c" d="M157 319h6l-3 1v3l3 1h-2v2a20 20 0 0 1-12 6l-1 3 4-1 1 5 2.8-.6c3.4-.4 4.3 0 7.2 1.6l-4.8.7-2.7.4c-2.5-.1-2.5-.1-4.2-1.5L150 338l-2.1-.8c-1.9-1.2-1.9-1.2-2.7-4.3l-.2-2.9c-2.2.8-2.2.8-3 3q-1.4 5-1.7 10.1l-.3 1.9-2 1c-.5-7.2-.4-13 4-19 3.2-3.3 7-7 11.7-7.1l2.3.1 1 3 2-3z"/><path fill="#422b18" d="m259 425 11.6-.2h3.3c5.9-.1 10.2-.1 15.1 3.2v2c-15.4 6.6-15.4 6.6-23.2 4.4a35 35 0 0 1-6.8-7.4z"/><path fill="#402917" d="M317.4 424.8h3.4l8.2.2-2.7 3.9-1.6 2.2c-2.8 3.1-5 3.8-9.2 4.3-6 0-11.2-3-16.5-5.4v-2c5.8-3.9 11.6-3.3 18.4-3.2"/><path fill="#452e19" d="m338 267 6.3-.2 3.5-.2c3.2.4 3.2.4 5.5 2a20 20 0 0 1 3.4 7.8l.8 2.8q.7 3.9.5 7.8c-7-2-10.2-4.8-14.5-10.6l-1.6-2c-3.9-5-3.9-5-3.9-7.4"/><path fill="#442e19" d="M243.7 266.9h3.6l2.7.1-7.2 11c-3 4.8-6.5 7.1-11.8 9h-2l1.4-6.7.7-3.8c2-7.8 4.5-9.8 12.6-9.6"/><path fill="#452e19" d="M229 401c9.7 1.9 13.7 8.1 19 15.8 2 3.2 2 3.2 2 4.2l-5.7.3h-3.2c-4-.4-5.4-1.3-8.1-4.3a44 44 0 0 1-2.3-8.2l-.5-2.3z"/><path fill="#432d19" d="M358 402c-.8 6.3-2 12.5-6 17.6-4.6 2.2-9 1.7-14 1.4a57 57 0 0 1 6.3-10l2.2-3.2C350 404 353 402 358 402"/><path fill="#452f1a" d="M376 372a148 148 0 0 1 2.9 11.6c-1.2 4.5-2.8 5-6.8 7.3-5.7 3.1-5.7 3.1-8.1 3.1.5-6.6 3-22 12-22"/><path fill="#442e19" d="m212 372 5 5 2.2 1.8c2.7 3.3 3.4 7 3.8 11.2l-1 4-13-7c1.9-13.9 1.9-13.9 3-15"/><path fill="#f4eb6f" d="M422 320v2l8 1c-1.2 2.4-2.3 3-4.4 4.5q-3 2-5.6 4.5h-4l-1 3 3-1 1 5c-6.3-1.9-6.3-1.9-8.1-4.7-.8-2.3-1.1-3.9-.9-6.3 3-5.2 6-8 12-8"/><path fill="#d6cb60" d="m413 323 2 1-1.8 2.1c-5.4 7.1-6.2 13-5.2 21.9 1.6 5.4 4.2 8.9 9 12l2 1.3c2.8 1 5 .4 8-.3v2l2 .4 2 .6 1 2c-7 .5-12.3.2-18-4a29 29 0 0 1-10.5-20.4c.2-6.6 3.5-12.3 7.8-17.2z"/><path fill="#452f19" d="M367 312c9.6 9.5 9.6 9.5 10.5 15.2q-1.1 8-3.5 15.8a20 20 0 0 1-3.3-9.4l-.7-3.8z"/><path fill="#452f1a" d="M315 267c15.2-1.8 15.2-1.8 19.8 1.2q5 4.7 8.2 10.8l-2 1-5.6-2.2-3.4-1.5-3.6-1.6-3.5-1.6c-8.8-3.8-8.8-3.8-9.9-6.1"/><path fill="#442e19" d="M219 313c1.2 3.6.8 6.2 0 9.9l-.7 3.3-.7 3.6-.8 3.5-1.8 8.7h-2l-2.4-10.4c-.8-4.9-.6-7.2 2.2-11.3l2.3-2.6 2.2-2.7zM273 267c-2.3 2.3-4.2 3-7.1 4.3l-3.1 1.4-3.2 1.4-3.3 1.4c-7.8 3.3-7.8 3.3-11.3 4.5 6.6-13.7 14-14.2 28-13"/><path fill="#452e19" d="m341 408 2 1a34 34 0 0 1-10 12c-5.9 1.5-12 .7-18 0 4.6-3.7 9.8-5.8 15.1-8.2l3.1-1.5 3-1.3 2.6-1.2z"/><path fill="#422c18" d="M244 408a136 136 0 0 1 16.3 6.5l2.7 1.2 2.6 1.2 2.4 1c2 1.1 2 1.1 4 3.1-14.1 1.8-14.1 1.8-18.9-1.2A52 52 0 0 1 244 409z"/><path fill="#434343" d="M401 486h14v4h-5v15h-4v-15l-5-1z"/><path fill="#49331b" d="M388 356c1.3 4 .2 7-.8 10.9l-.6 2.1a73 73 0 0 1-3.6 11c-2-1-2-1-2.7-2.9l-.5-2.4-.5-2.3c-.5-4.1 0-6.5 2.5-9.9l2.3-2.3 2.2-2.4z"/><path fill="#49331c" d="m198 355 7.9 7.8c2.5 3.9 2.4 5.7 1.6 10.1-.5 2.1-.5 2.1-1.5 5.1h-2c-3-7.6-5-14.9-6-23"/><path fill="#4b351c" d="M281 250h25c-2.4 2.4-4 3.7-6.9 5.3l-2 1c-3.6 1.2-6.2.1-9.6-1.5l-2.3-1.4-2.4-1.3-1.8-1.1z"/><path fill="#4b361d" d="M360 276c6 4.8 12.5 10.5 15 18l-4.2-1.3-2.4-.8c-2.7-1-4.4-1.9-6.4-3.9-.8-3-.8-3-1.2-6.2l-.5-3.3z"/><path fill="#4a341c" d="M226 276c1.1 3.8 1.2 6.8.3 10.7-2.9 5-9.2 6.5-14.3 8.3 1.5-4.8 4.3-8 7.6-11.7.7-1 .7-1 1.5-1.8 3.6-4.2 3.6-4.2 4.9-5.5"/><path fill="#4e391e" d="m213 394 6 2 3.3 1.1c3.4 2.4 3.7 4 4.6 7.9.1 2.2-.2 3.9-.9 6l-4.8-5.2-1.4-1.5c-6.8-7.5-6.8-7.5-6.8-10.3"/><path fill="#3e3e3e" d="m416 486 5 1 1 7-2 1c-.5 2.1-.5 2.1-.6 4.6l-.3 2.5-.1 1.9-4 1q-.1-9.5 1-19"/><path fill="#4b351d" d="m373 394 2 1a73 73 0 0 1-14 15c.3-8 .3-8 2.6-11.4q4.3-2.9 9.4-4.6"/><path fill="#4f391e" d="M283 288h9v2l-2.2.4A74 74 0 0 0 256 309l-2-1a71 71 0 0 1 29-19z"/><path fill="#dbd163" d="M169.8 319.7c4.2 1.7 7.1 3 9.2 7.3-.2 2.8-.2 2.8-1 5-2-3-2-3-3-6-4.1-3.3-7.9-3.7-13-4l-2 1-1-3-2 4-2-1-1-4c5-2.5 10.6-1 15.8.7"/><path fill="#452f1a" d="m295.5 431.6 2.5 1.4 3.3 1.6 2.7 1.4v1h-21c8.5-6.4 8.5-6.4 12.5-5.4"/><path fill="#503b1f" d="M384 314c2 1 2 1 2.9 3.3 2.5 9.6 2.5 9.6 2.1 14.7-5.7-4.2-5.7-4.2-7-7.3 0-3.8 1-7 2-10.7"/><path fill="#fbf69c" d="m177 209 2 1q-6.3 7.4-13.2 14.4l-1.5 1.6a24 24 0 0 1-8.3 6c1.5-3.6 3.6-5.8 6.4-8.5l2.5-2.6 2.7-2.7q1.4-1.2 2.7-2.6z"/><path fill="#4d381e" d="M202 314c2.9 2.9 2.8 5.5 3.2 9.4-.3 4.2-2.1 5.8-5.2 8.6h-1c-.4-6.6.9-11.8 3-18"/><path fill="#cdc25c" d="M261 413q8.2 2.5 16 6l-2 1v2h-20v-1l15-1-9-5z"/><path fill="#efe76d" d="M178 327c3 1 3 1 5 4 .4 2.3.4 2.3.6 4.7l.3 2.4.1 1.9-4 1c-2.3-3.4-2.2-4.7-2.1-8.7v-3z"/><path fill="#cabe5a" d="m438 320-2 3-8-2v2h-7l1-3-2-1c6.2-2 12.1-1.4 18 1"/><path fill="#e1d866" d="M367 314h1l2 10.3.7 2.9.5 2.8.5 2.6c.3 2.5 0 4-.7 6.4-4.2-3.3-4-7.6-4.7-12.6-.4-4.3 0-8.1.7-12.4"/><path fill="#e3d966" d="M219 317c2.2 3.3 2.2 3.8 1.8 7.5l-.4 2.6q-1 7-2.4 13.9h-3q1-8.3 2.6-16.5l.4-2.2z"/><path fill="#cabe5a" d="m411 357 6.9 3.7c3.6 1.5 5.4 1.3 9.1.3v2l2 .4 2 .6 1 2c-7 .5-12.2 0-18-4-1.7-1.5-1.7-1.5-3-3z"/><path fill="#49331b" d="M303 466h7l1 5c-3.2 2.2-4.3 2.2-8 2z"/><path fill="#442e19" d="M156.8 332.3c2.2 2.7 2.2 2.7 2.2 5.7l-6 1-1-5-4 1 1-4c3.8-1.4 4.6-1.3 7.8 1.3"/><path fill="#272727" d="M430 491h3l1 14h-4z"/><path fill="#f0e76d" d="M224 305c-.4 5.3-1 10-3 15h-1v-8h-3c1.2-2.9 3.4-7 7-7"/><path fill="#68552b" d="m416 331 6 1 1 3h-3v4l3 1-2 2a10 10 0 0 1-4-7h-2z"/><path fill="#634f28" d="M283 288h9v2l-2.4.6A81 81 0 0 0 273 296l-2-2 12-5z"/><path fill="#d7cc61" d="M139 345c2 2 2.9 3.5 4.1 5.9l1.1 2c.8 2.1.8 2.1.8 6.1-6-5.6-6-5.6-7-9 .4-2.7.4-2.7 1-5"/><path fill="#523d20" d="M257 256c0 3 0 3-1 5.2-2.9 2.6-5.3 2.1-9.1 2l-1.9-.2c1.5-3 3.6-3.3 6.6-4.6l3-1.4z"/><path fill="#4d381e" d="M330 257c4.8.6 8 2.6 12 5v1c-5.3.5-5.3.5-8 0-2.5-3-2.5-3-4-6"/><path fill="#b7aa51" d="m152 334 1 5 2.8-.6c3.4-.4 4.3 0 7.2 1.6l-4.8.7-2.7.4c-2.5-.1-2.5-.1-4.1-1.5L150 338l-3-2c3-2 3-2 5-2"/><path fill="#e2d866" d="M430 323c-1 2-1 2-3.3 3.1-2.7.9-2.7.9-6.7.9l1-4c3.3-1.1 5.6-.8 9 0"/><path fill="#d1c65e" d="m172 360 3 1a14 14 0 0 1-11.3 3.8l-6.7-.8v-1l2.8-.4 3.6-.5 3.6-.6c3-.3 3-.3 5-1.5"/><path fill="#626262" d="m415 496 2 1v2h2v5l-4 1z"/><path fill="#ddd364" d="m254.2 409.6 2.4.8 2.5 1 1.9.6v3l-4.4-1.4-2.4-.7c-2.2-.9-2.2-.9-4.2-2.9 2-1 2-1 4.2-.4"/><path fill="#d6cb60" d="M183 333c2.2 3.4 2.3 4.6 2.3 8.5v3c-.3 2.5-.3 2.5-2.3 5.5-1.3-4.6-.7-8.3 0-13z"/><path fill="#594423" d="M246 425c5.4-.4 5.4-.4 8 0 2 2.5 2 2.5 3 5-4.1-.6-7.3-2-11-4z"/><path fill="#6a6a6a" d="M421 490c2.3 2.3 3 4 4 7l-1 3-1-1-2 2c-.8-4-1-7 0-11"/><path fill="#554021" d="M337.6 425h3.4c-6.6 5-6.6 5-10 5 2.4-5 2.4-5 6.6-5"/><path fill="#452f1a" d="M262 302c0 3.6-1.2 5-3.6 7.6-1.9 1.9-3.9 2.7-6.4 3.4 1.4-3.4 3.3-5.4 6.1-7.7l2.2-2z"/><path fill="#ded364" d="m343 410 1 3-9 6c1.7-4 4-7 8-9"/><path fill="#a89a4a" d="M164 318v1l-2.4.3c-2.7.4-2.7.4-4 2.8l-.6 1.9-2-1-1-4c3.2-1.6 6.4-1 10-1"/><path fill="#dcd263" d="M221 311v2a45 45 0 0 1-10 5c5.3-7 5.3-7 10-7"/><path fill="#584323" d="m262 300 3 1-5.6 5.1-2 1.7-1.4 1.2-2-1z"/><path fill="#e3da67" d="M406 349c2.7 2.5 4.6 4.6 6 8h-3c-2.1-2.9-3-4.4-3-8"/><path fill="#d1c65e" d="M285 289c-3.3 2.2-6.2 3-10 4l-1-3c3.7-1.2 7.2-1 11-1"/><path fill="#523d20" d="M265 391c3.7 1.2 4.8 1.7 7 5-3.7-.5-5.6-1.1-8-4z"/><path fill="#dbd062" d="M448 348a11 11 0 0 1 2 4c-1.4 2.8-1.4 2.8-3 5l-2-1 1-2.3z"/><path fill="#69562b" d="m175 410 4 2-6 3-2-1z"/><path fill="#d5ca60" d="m216 333 3 1-1 7h-3z"/><path fill="#ccc15c" d="m414 333 1 2 3-1 1 5-7-3 2-1z"/><path fill="#c8bc59" d="M370 330h1l1 9-3-1c-.6-2.9-.6-2.9-1-6z"/><path fill="#827037" d="m156.8 332.4 2.2 2.6-3 1-1.2-1.4a19 19 0 0 0-5.8-3.6c3.9-1.4 4.6-1.4 7.8 1.4"/><path fill="#988942" d="M283 288h9v2l-7 1v-2z"/><path fill="#656565" d="m431 500 3 1v4h-4z"/><path fill="#0e0e0e" d="M417 490h1l1 9h-2c-1.1-5.6-1.1-5.6 0-9"/><path fill="#dacf62" d="m314 268 7 2c-1.7 1.1-1.7 1.1-4 2-2.7-.9-2.7-.9-5-2z"/></svg>